<?xml version="1.0" encoding="utf-8"?>
<!-- Generator: Adobe Illustrator 16.0.0, SVG Export Plug-In . SVG Version: 6.00 Build 0)  -->
<!DOCTYPE svg PUBLIC "-//W3C//DTD SVG 1.1//EN" "http://www.w3.org/Graphics/SVG/1.1/DTD/svg11.dtd">
<svg version="1.1" id="Layer_1" xmlns="http://www.w3.org/2000/svg" xmlns:xlink="http://www.w3.org/1999/xlink" x="0px" y="0px"
	 width="77.016px" height="101.562px" viewBox="0 0 77.016 101.562" enable-background="new 0 0 77.016 101.562"
	 xml:space="preserve">
<path fill="#81C0AB" d="M44.935,0c2.584,0,5.167,0,7.751,0C50.723-0.446,46.899-0.446,44.935,0"/>
<path fill="#81C0AB" d="M17.143,29.396c0-0.892,0-1.782,0-2.673C16.701,27.01,16.701,29.107,17.143,29.396"/>
<path fill="#81C0AB" d="M55.358,16.301c0.162,1,2.154,2.475,3.206,3.475C57.654,18.459,56.269,17.617,55.358,16.301"/>
<path fill="#E3BE98" d="M39.324,24.051c0.288-0.441,2.385-0.441,2.672,0c1.28,0.234,2.049,0.98,3.207,1.337
	c-1.088,2.569-2.769-0.805-5.346,0c-0.646,0.456-1.615,1.596-2.672,0.802C36.603,24.938,38.277,24.471,39.324,24.051 M46.272,37.947
	c1.43-0.175,3.559,0.351,4.543-0.268c-1.062-3.394-0.915-8.18-1.068-11.759c1.061-1.635,5.164-1.219,6.682-0.268
	c-0.551,0.074-0.252,0.996-0.803,1.069c-0.045-0.312-0.422-0.29-0.801-0.268c-0.979,0-1.959,0-2.939,0
	c-0.818-0.001-1.161,1.847-0.534,2.405c1.499-1.163,3.968-0.05,5.879,0c0.109,0.644-0.486,0.581-0.269,1.336
	c-1.006,0.205-1.276-0.326-2.137-0.267c0.543,0.738,0.2,2.378-0.535,2.673c-0.768-0.864-1.174-2.349-0.802-2.94
	c-1.002,0.121-1.719,0.525-2.138,0.534c0.073,3.127,1.508,6.854,0.534,9.353c-0.09,0-0.18,0-0.268,0
	c-0.987,0.445-3.822,0.445-4.812,0c-0.089,0-0.178,0-0.268,0C46.451,38.604,45.804,38.894,46.272,37.947z M43.065,44.36
	c2.522-0.354,6.919-0.35,8.819,0.803C50.169,46.686,43.166,46.891,43.065,44.36z M40.66,33.137
	c-0.957-0.787-0.613-3.201-0.803-4.009c-0.85,0.569-2.438,1.37-2.672-0.268c1.016-0.054,1.016-1.124,2.139-1.068
	c0.375-0.443,2.564-0.443,2.938,0c1.117,0.129,1.865,0.629,2.139,1.604c-0.651,1.258-2.35-0.296-2.938,0.267
	C41.976,30.846,41.805,32.815,40.66,33.137z M31.307,54.249c9.184,0.719,15.739-1.188,21.646-3.742
	c1.614-2.394,3.155-4.859,4.811-7.215c1.646-5.837,0.786-13.304,0.269-19.775c-6.841-3.05-12.5-7.276-17.64-12.025
	c-2.504,6.047-9.707,7.395-8.284,17.37c-0.402-0.053-2.3-0.899-4.008-0.534c-2.575,3.306,2.206,7.779,0,10.69
	C29.557,42.78,26.012,52.479,31.307,54.249z"/>
<path fill="#48132D" d="M39.858,25.387c2.577-0.805,4.258,2.569,5.346,0c-1.158-0.356-1.927-1.103-3.207-1.337
	c-0.287-0.441-2.384-0.441-2.672,0c-1.048,0.421-2.722,0.888-2.139,2.139C38.242,26.983,39.21,25.844,39.858,25.387"/>
<path fill="#48132D" d="M44.402,29.396c-0.272-0.975-1.021-1.475-2.139-1.604c-0.374-0.443-2.563-0.443-2.938,0
	c-1.123-0.056-1.123,1.015-2.139,1.068c0.233,1.638,1.822,0.837,2.672,0.268c0.188,0.808-0.154,3.222,0.803,4.009
	c1.146-0.322,1.315-2.291,0.803-3.475C42.052,29.1,43.75,30.654,44.402,29.396"/>
<path fill="#48132D" d="M17.143,26.723c0,0.891,0,1.781,0,2.673c-0.375,2.327,1.535,3.795,1.871,5.879
	c0.572,3.557-1.805,7.052-0.268,10.688c1.329-0.185,2.403,0.389,2.591-0.94c-0.012,0.457,0.281-0.236,0.616-0.128
	c2.037-1.973,4.054-3.964,6.146-5.878c2.206-2.911-2.575-7.385,0-10.69c1.708-0.365,3.605,0.481,4.008,0.534
	c-1.423-9.976,5.78-11.323,8.284-17.37c5.14,4.749,10.799,8.976,17.64,12.025c1.329-0.436,1.592,1.003,2.403,0.268
	c1.185-1.965-1.197-2.441-1.871-4.009c-1.052-1-3.044-2.475-3.206-3.475c1.449,0.065,2.602,0.429,4.276,0.268
	c-0.021-3.098-2.768-3.468-4.543-4.811c3.632-1,10.466,1.202,10.688-3.207c-2.508-1.502-5.768-2.25-8.819-3.207
	c1.01-2.197,5.289-1.126,6.414-3.206c-0.347-1.143-2.479-1.032-4.275-1.337C57.027,0.45,55.108,0.039,52.686,0
	c-2.584,0-5.167,0-7.751,0c-8.66,1.785-15.971,4.384-20.577,10.154c-0.067,0.086-0.133,0.174-0.197,0.262
	c-1.109,1.479-1.83,3.198-2.452,4.994c-1.192,3.44-2.029,7.157-4.565,9.978C17.143,25.833,17.143,26.278,17.143,26.723z"/>
<path fill="#48132D" d="M46.806,39.55c0.988,0.445,3.823,0.445,4.812,0c0.088,0,0.178,0,0.268,0
	c0.974-2.498-0.461-6.226-0.534-9.353c0.419-0.009,1.136-0.413,2.138-0.534c-0.372,0.592,0.034,2.076,0.802,2.94
	c0.735-0.295,1.078-1.935,0.535-2.673c0.859-0.06,1.131,0.472,2.137,0.267c-0.219-0.755,0.378-0.692,0.269-1.336
	c-1.911-0.05-4.38-1.163-5.879,0c-0.627-0.559-0.284-2.406,0.534-2.405c0.98,0,1.96,0,2.939,0c0.379-0.022,0.756-0.044,0.801,0.268
	c0.551-0.073,0.252-0.995,0.803-1.069c-1.518-0.951-5.621-1.367-6.682,0.268c0.153,3.579,0.006,8.365,1.068,11.759
	c-0.984,0.617-3.113,0.093-4.543,0.268c-0.468,0.946,0.18,0.656,0.268,1.603C46.628,39.55,46.717,39.55,46.806,39.55"/>
<path fill="#48132D" d="M43.065,44.36c0.102,2.53,7.104,2.325,8.819,0.803C49.984,44.012,45.587,44.007,43.065,44.36"/>
<path fill="#48132D" d="M68.453,55.05c0.048,0.877-18.128,14.163-34.527,26.325c-9.574-0.858-16.415-5.187-22.395-9.757
	c-3.869-2.955-7.941-5.131-8.285-10.422c-2.266,0.654-3.488,2.535-3.206,6.413c0.7,9.634,6.102,20.919,7.749,31.267
	c0.141,0.879,0.277,1.781,0.406,2.687c0,0,35.287-0.285,45.3-1.846s21.519-0.877,21.519-0.877L75.9,71.413
	c0.459,0.059,1.061-9.13,1.116-9.111C76.964,58.347,72.567,56.06,68.453,55.05z"/>
<path fill="#F8B018" d="M56.462,75.913c8-7.25,12.078-19.268,11.99-20.863c-0.062-7.247-3.259-12.77-10.689-11.758
	c-1.654,2.354-3.195,4.821-4.811,7.215c-5.906,2.556-12.464,4.461-21.646,3.742c-5.295-1.77-1.75-11.469-3.207-15.231
	c-2.093,1.914-4.11,3.905-6.146,5.878c-0.335-0.108-0.546-0.346-0.534-0.803c-0.188,1.329-1.344,1.688-2.673,1.871
	c-3.386,0.474-7.779,4.316-10.497,6.443c-3.15,2.465-5.616,4.408-5.003,8.789c0.344,5.291,4.416,7.467,8.284,10.422
	c7.961,6.084,17.443,11.738,32.871,9.354C44.402,80.972,52.806,79.882,56.462,75.913z"/>
</svg>
