<?xml version="1.0" encoding="utf-8"?>
<!-- Generator: Adobe Illustrator 16.0.0, SVG Export Plug-In . SVG Version: 6.00 Build 0)  -->
<!DOCTYPE svg PUBLIC "-//W3C//DTD SVG 1.1//EN" "http://www.w3.org/Graphics/SVG/1.1/DTD/svg11.dtd">
<svg version="1.1" id="Layer_1" xmlns="http://www.w3.org/2000/svg" xmlns:xlink="http://www.w3.org/1999/xlink" x="0px" y="0px"
	 width="77.016px" height="101.562px" viewBox="0 0 77.016 101.562" enable-background="new 0 0 77.016 101.562"
	 xml:space="preserve">
<path fill="#81C0AB" d="M44.935,0c2.584,0,5.167,0,7.751,0C50.723-0.446,46.899-0.446,44.935,0"/>
<path fill="#81C0AB" d="M17.143,29.396c0-0.891,0-1.782,0-2.673C16.701,27.011,16.701,29.107,17.143,29.396"/>
<path fill="#81C0AB" d="M55.358,16.301c0.162,1,2.154,2.474,3.206,3.474C57.654,18.459,56.269,17.617,55.358,16.301"/>
<path fill="#E3BE98" d="M39.324,24.051c0.289-0.442,2.385-0.442,2.672,0c1.281,0.234,2.049,0.98,3.207,1.336
	c-1.088,2.57-2.768-0.804-5.345,0c-0.647,0.457-1.616,1.596-2.672,0.802C36.603,24.938,38.277,24.471,39.324,24.051 M46.272,37.947
	c1.429-0.175,3.558,0.351,4.543-0.268c-1.063-3.393-0.915-8.179-1.069-11.758c1.061-1.635,5.164-1.219,6.682-0.268
	c-0.551,0.074-0.252,0.996-0.803,1.069c-0.045-0.311-0.422-0.29-0.801-0.267c-0.979,0-1.959,0-2.939,0
	c-0.818-0.001-1.161,1.847-0.534,2.405c1.499-1.163,3.968-0.05,5.879,0c0.109,0.644-0.487,0.581-0.269,1.336
	c-1.006,0.205-1.276-0.326-2.137-0.267c0.543,0.739,0.201,2.378-0.535,2.673c-0.767-0.864-1.174-2.348-0.801-2.94
	c-1.002,0.121-1.719,0.525-2.138,0.534c0.073,3.127,1.508,6.855,0.534,9.353c-0.09,0-0.18,0-0.268,0
	c-0.987,0.445-3.822,0.445-4.811,0c-0.089,0-0.178,0-0.268,0C46.451,38.604,45.804,38.894,46.272,37.947z M43.065,44.36
	c2.522-0.354,6.919-0.349,8.819,0.803C50.169,46.686,43.166,46.891,43.065,44.36z M40.66,33.137
	c-0.957-0.787-0.613-3.201-0.802-4.008c-0.85,0.569-2.438,1.37-2.672-0.268c1.015-0.054,1.015-1.124,2.138-1.068
	c0.375-0.444,2.565-0.444,2.939,0c1.117,0.129,1.865,0.629,2.139,1.603c-0.652,1.258-2.35-0.296-2.939,0.267
	C41.976,30.846,41.805,32.815,40.66,33.137z M31.307,54.249c9.183,0.719,15.739-1.188,21.646-3.742
	c1.615-2.394,3.156-4.86,4.811-7.215c1.645-5.837,0.786-13.304,0.268-19.776c-6.84-3.049-12.5-7.276-17.639-12.025
	c-2.504,6.047-9.707,7.395-8.284,17.37c-0.403-0.053-2.3-0.899-4.008-0.534c-2.575,3.306,2.206,7.779,0,10.69
	C29.557,42.78,26.012,52.479,31.307,54.249z"/>
<path fill="#48132D" d="M39.858,25.387c2.577-0.804,4.257,2.57,5.345,0c-1.158-0.356-1.926-1.102-3.207-1.336
	c-0.287-0.442-2.383-0.442-2.672,0c-1.047,0.42-2.721,0.887-2.138,2.138C38.242,26.983,39.21,25.844,39.858,25.387"/>
<path fill="#48132D" d="M44.402,29.396c-0.273-0.974-1.021-1.474-2.139-1.603c-0.374-0.444-2.564-0.444-2.939,0
	c-1.123-0.056-1.123,1.014-2.138,1.068c0.233,1.638,1.822,0.837,2.672,0.268c0.188,0.807-0.155,3.221,0.802,4.008
	c1.146-0.322,1.316-2.291,0.803-3.474C42.052,29.1,43.75,30.654,44.402,29.396"/>
<path fill="#48132D" d="M17.143,26.723c0,0.891,0,1.782,0,2.673c-0.375,2.327,1.535,3.795,1.871,5.879
	c0.572,3.557-1.805,7.052-0.268,10.689c1.329-0.185,2.404,0.388,2.591-0.941c-0.012,0.457,0.281-0.236,0.616-0.128
	c2.037-1.972,4.054-3.964,6.147-5.878c2.206-2.911-2.575-7.384,0-10.69c1.708-0.365,3.605,0.481,4.008,0.534
	c-1.423-9.975,5.78-11.323,8.284-17.37c5.139,4.749,10.799,8.976,17.639,12.025c1.33-0.435,1.592,1.003,2.404,0.268
	c1.184-1.965-1.197-2.441-1.871-4.009c-1.052-1-3.044-2.474-3.206-3.474c1.449,0.065,2.601,0.428,4.276,0.267
	c-0.021-3.098-2.768-3.468-4.543-4.81c3.632-1,10.466,1.202,10.689-3.207c-2.508-1.502-5.768-2.25-8.82-3.207
	c1.01-2.198,5.289-1.126,6.414-3.207c-0.346-1.142-2.479-1.032-4.275-1.336C57.027,0.45,55.108,0.039,52.686,0
	c-2.584,0-5.167,0-7.751,0c-8.66,1.785-15.971,4.384-20.577,10.154c-0.068,0.086-0.133,0.174-0.198,0.262
	c-1.109,1.478-1.83,3.198-2.452,4.994c-1.192,3.44-2.029,7.157-4.565,9.977C17.143,25.833,17.143,26.278,17.143,26.723z"/>
<path fill="#48132D" d="M46.806,39.55c0.988,0.445,3.823,0.445,4.811,0c0.088,0,0.178,0,0.268,0
	c0.974-2.498-0.461-6.226-0.534-9.353c0.419-0.009,1.136-0.413,2.138-0.534c-0.373,0.592,0.034,2.076,0.801,2.94
	c0.736-0.295,1.078-1.934,0.535-2.673c0.86-0.059,1.131,0.472,2.137,0.267c-0.219-0.755,0.378-0.692,0.269-1.336
	c-1.911-0.05-4.38-1.163-5.879,0c-0.627-0.558-0.284-2.406,0.534-2.405c0.98,0,1.96,0,2.939,0c0.379-0.023,0.756-0.044,0.801,0.267
	c0.551-0.073,0.252-0.995,0.803-1.069c-1.518-0.951-5.621-1.367-6.682,0.268c0.154,3.579,0.006,8.365,1.069,11.758
	c-0.985,0.618-3.114,0.093-4.543,0.268c-0.468,0.946,0.179,0.656,0.267,1.603C46.628,39.55,46.717,39.55,46.806,39.55"/>
<path fill="#48132D" d="M43.065,44.36c0.101,2.53,7.104,2.325,8.819,0.803C49.984,44.012,45.587,44.007,43.065,44.36"/>
<path fill="#48132D" d="M68.453,55.05c0.048,0.877-18.128,14.163-34.527,26.325c-9.574-0.859-16.415-5.187-22.395-9.757
	c-3.869-2.955-7.941-5.131-8.285-10.422c-2.265,0.654-3.488,2.535-3.206,6.413c0.7,9.634,6.102,20.919,7.749,31.267
	c0.141,0.879,0.278,1.781,0.407,2.686l66.818-2.722L75.9,71.413c0.459,0.058,1.06-9.13,1.116-9.111
	C76.964,58.347,72.567,56.06,68.453,55.05z"/>
<path fill="#F8B018" d="M56.462,75.913c8-7.25,12.078-19.268,11.99-20.863c-0.062-7.247-3.258-12.77-10.689-11.758
	c-1.654,2.354-3.195,4.821-4.811,7.215c-5.906,2.555-12.463,4.461-21.646,3.742c-5.295-1.77-1.75-11.469-3.207-15.232
	c-2.093,1.914-4.11,3.906-6.147,5.878c-0.335-0.108-0.546-0.345-0.534-0.802c-0.187,1.329-1.344,1.687-2.673,1.871
	c-3.385,0.473-7.779,4.316-10.497,6.443c-3.15,2.465-5.616,4.408-5.003,8.789c0.344,5.291,4.416,7.467,8.285,10.422
	c7.96,6.084,17.443,11.738,32.871,9.354C44.402,80.972,52.806,79.882,56.462,75.913z"/>
</svg>
