<?xml version="1.0" encoding="utf-8"?>
<!-- Generator: Adobe Illustrator 16.0.0, SVG Export Plug-In . SVG Version: 6.00 Build 0)  -->
<!DOCTYPE svg PUBLIC "-//W3C//DTD SVG 1.1//EN" "http://www.w3.org/Graphics/SVG/1.1/DTD/svg11.dtd">
<svg version="1.1" id="Layer_1" xmlns="http://www.w3.org/2000/svg" xmlns:xlink="http://www.w3.org/1999/xlink" x="0px" y="0px"
	 width="80px" height="100px" viewBox="-1.492 0.781 80 100" enable-background="new -1.492 0.781 80 100" xml:space="preserve">
<g>
	<path fill="#E3BE98" d="M39.309,24.712c0.282-0.432,2.341-0.432,2.622,0c1.256,0.23,2.011,0.963,3.147,1.313
		c-1.067,2.521-2.718-0.791-5.247,0c-0.633,0.446-1.584,1.565-2.622,0.786C36.638,25.583,38.281,25.125,39.309,24.712
		 M46.127,38.349c1.404-0.171,3.493,0.345,4.458-0.263c-1.041-3.331-0.897-8.028-1.047-11.54c1.04-1.604,5.067-1.196,6.557-0.263
		c-0.54,0.072-0.247,0.978-0.787,1.049c-0.045-0.307-0.414-0.284-0.786-0.264c-0.961,0-1.923,0-2.885,0
		c-0.803-0.001-1.14,1.812-0.524,2.361c1.472-1.142,3.894-0.049,5.77,0c0.107,0.631-0.477,0.57-0.264,1.311
		c-0.987,0.201-1.253-0.32-2.097-0.263c0.533,0.725,0.195,2.335-0.525,2.624c-0.754-0.848-1.152-2.306-0.788-2.886
		c-0.983,0.119-1.687,0.516-2.098,0.524c0.072,3.069,1.479,6.726,0.524,9.179c-0.088,0-0.177,0-0.263,0
		c-0.969,0.437-3.751,0.437-4.723,0c-0.087,0-0.175,0-0.263,0C46.304,38.995,45.668,39.279,46.127,38.349z M42.98,44.643
		c2.476-0.348,6.79-0.344,8.655,0.788C49.952,46.927,43.079,47.128,42.98,44.643z M40.62,33.63
		c-0.939-0.772-0.602-3.142-0.789-3.936c-0.833,0.56-2.392,1.345-2.622-0.262c0.998-0.053,0.998-1.104,2.1-1.049
		c0.368-0.435,2.517-0.435,2.883,0c1.097,0.126,1.831,0.617,2.1,1.574c-0.639,1.234-2.307-0.29-2.883,0.262
		C41.911,31.382,41.743,33.313,40.62,33.63z M31.441,54.348c9.013,0.705,15.446-1.166,21.244-3.673
		c1.583-2.35,3.095-4.769,4.721-7.081c1.615-5.728,0.771-13.056,0.265-19.406c-6.715-2.993-12.268-7.141-17.312-11.801
		c-2.457,5.934-9.526,7.258-8.13,17.047c-0.394-0.052-2.257-0.883-3.933-0.524c-2.527,3.244,2.165,7.634,0,10.491
		C29.723,43.093,26.245,52.611,31.441,54.348z"/>
	<path fill="#48132D" d="M39.832,26.024c2.529-0.791,4.18,2.521,5.247,0c-1.137-0.35-1.892-1.083-3.147-1.313
		c-0.281-0.432-2.34-0.432-2.622,0c-1.029,0.414-2.671,0.872-2.1,2.1C38.247,27.59,39.198,26.471,39.832,26.024"/>
	<path fill="#48132D" d="M44.292,29.958c-0.267-0.957-1.002-1.448-2.1-1.574c-0.366-0.435-2.515-0.435-2.883,0
		c-1.102-0.055-1.102,0.997-2.1,1.049c0.229,1.606,1.789,0.821,2.622,0.262c0.186,0.794-0.15,3.163,0.789,3.936
		c1.124-0.316,1.29-2.248,0.788-3.411C41.986,29.668,43.653,31.192,44.292,29.958"/>
	<path fill="#48132D" d="M65.27,9.5c-2.461-1.475-5.66-2.208-8.654-3.147c0.991-2.155,5.19-1.105,6.295-3.146
		c-0.342-1.122-2.434-1.013-4.196-1.312c-2.032-0.344-3.916-0.747-6.292-0.785c-1.927-0.438-5.68-0.438-7.607,0
		c-8.499,1.752-15.673,4.302-20.193,9.965c-0.065,0.085-0.13,0.171-0.193,0.257c-1.089,1.452-1.796,3.139-2.406,4.901
		c-1.17,3.376-1.309,6.593-3.798,9.361c-0.417,0.583-0.938,1.188-0.684,1.741c0.364,0.794,0,1.747,0,2.623
		c-0.368,2.284,1.506,3.725,1.836,5.77c0.562,3.49-1.771,6.921-0.262,10.488c1.304-0.181,2.357,0.383,2.542-0.922
		c-0.012,0.449,0.276-0.231,0.604-0.125c2-1.938,3.979-3.891,6.031-5.769c2.165-2.857-2.527-7.248,0-10.491
		c1.676-0.358,3.538,0.473,3.933,0.524c-1.396-9.791,5.673-11.113,8.13-17.047c5.045,4.66,10.598,8.809,17.312,11.801
		c1.303-0.428,1.562,0.984,2.357,0.263c1.163-1.928-1.175-2.396-1.836-3.934c0,0,0.001,0.001,0.001,0.001
		c-0.894-1.293-2.253-2.119-3.146-3.411c0.079,0.49,0.607,1.098,1.245,1.705c-0.638-0.607-1.166-1.215-1.246-1.706
		c1.422,0.064,2.554,0.422,4.196,0.264c-0.021-3.04-2.716-3.403-4.458-4.722C58.346,11.666,65.052,13.827,65.27,9.5z"/>
	<path fill="#48132D" d="M46.652,39.923c0.97,0.437,3.752,0.437,4.723,0c0.086,0,0.175,0,0.263,0
		c0.955-2.452-0.452-6.11-0.524-9.179c0.411-0.009,1.114-0.405,2.099-0.524c-0.365,0.581,0.033,2.038,0.787,2.886
		c0.721-0.289,1.058-1.899,0.525-2.623c0.842-0.06,1.109,0.463,2.097,0.262c-0.215-0.741,0.371-0.68,0.264-1.311
		c-1.876-0.049-4.299-1.142-5.77,0c-0.615-0.55-0.279-2.362,0.524-2.361c0.962,0,1.923,0,2.885,0
		c0.372-0.021,0.741-0.043,0.786,0.264c0.54-0.071,0.247-0.977,0.787-1.049c-1.489-0.934-5.517-1.342-6.557,0.263
		c0.149,3.512,0.006,8.209,1.047,11.54c-0.965,0.605-3.054,0.092-4.458,0.263c-0.459,0.929,0.177,0.645,0.264,1.573
		C46.477,39.923,46.564,39.923,46.652,39.923"/>
	<path fill="#48132D" d="M42.98,44.643c0.101,2.483,6.973,2.282,8.655,0.788C49.77,44.302,45.455,44.297,42.98,44.643"/>
	<path fill="#48132D" d="M67.896,55.134c0.047,0.861-17.79,13.899-33.884,25.835c-9.396-0.841-16.109-5.09-21.978-9.574
		c-3.797-2.9-7.793-5.036-8.131-10.229c-2.225,0.643-3.423,2.488-3.146,6.294c0.687,9.454,5.988,23.166,7.605,33.321l46.813-1
		c10.123-0.113,19.159,1,19.159,1l0.869-29.589c0.45,0.059,1.042-8.959,1.096-8.941C76.248,58.371,71.933,56.126,67.896,55.134z"/>
	<path fill="#F8B018" d="M56.128,75.609c7.851-7.115,11.853-18.909,11.767-20.476c-0.062-7.112-3.199-12.531-10.49-11.539
		c-1.624,2.311-3.136,4.731-4.721,7.081c-5.797,2.509-12.233,4.378-21.244,3.673c-5.196-1.737-1.718-11.256-3.147-14.947
		c-2.054,1.878-4.033,3.831-6.031,5.769c-0.329-0.106-0.536-0.341-0.524-0.789c-0.185,1.305-1.319,1.657-2.623,1.836
		c-3.324,0.466-7.635,4.236-10.302,6.324c-3.092,2.419-5.512,4.326-4.91,8.625c0.337,5.192,4.333,7.328,8.129,10.229
		c7.813,5.97,17.119,11.52,32.259,9.18C44.292,80.574,52.539,79.504,56.128,75.609z"/>
</g>
</svg>
