<?xml version="1.0" encoding="utf-8"?>
<!-- Generator: Adobe Illustrator 16.0.0, SVG Export Plug-In . SVG Version: 6.00 Build 0)  -->
<!DOCTYPE svg PUBLIC "-//W3C//DTD SVG 1.1//EN" "http://www.w3.org/Graphics/SVG/1.1/DTD/svg11.dtd">
<svg version="1.1" id="Layer_1" xmlns="http://www.w3.org/2000/svg" xmlns:xlink="http://www.w3.org/1999/xlink" x="0px" y="0px"
	 width="400px" height="150px" viewBox="0 0 400 150" enable-background="new 0 0 400 150" xml:space="preserve">
<g id="Layer_1_1_">
	<path fill="#DF5D1E" d="M148.59,139.393c-0.473,0.372-1.49,1.074-2.408,1.706c-0.013,0.027-0.013,0.056-0.028,0.085l-1.534,0.961
		c-1.906,1.133-3.911,2.092-5.961,2.879c-0.042,0.018-0.086,0.029-0.128,0.045c-0.167-0.012-0.338-0.017-0.513-0.017
		c-2.915,0-6.946,1.482-9.447,1.563c-0.046,0-0.093-0.002-0.142-0.002c-1.814,0-5.149,0.791-6.336,1.295
		c-0.2,0.027-3.854,0.917-4.054,0.963c-1.92,0.127-3.841,0.232-5.761,0.333c-0.99,0.044-4.171,0.226-5.145,0.282
		c-2.093,0.129-4.17,0.22-6.248,0.264c-1.807,0.011-5.078,0.053-7.576,0.053c-0.771,0-1.468-0.004-2.026-0.014
		c-0.73-0.014-6.248,0.023-7.881-0.018c-0.109,0-0.23,0.229-0.353,0.229c-0.006,0-0.013,0-0.02,0c-0.12,0-0.243-0.096-0.369-0.096
		c-1.362,0-3.033,0.096-4.333,0.096H78.11c-1.447,0-5.432-0.477-6.592-0.49c-0.443-0.014-3.697-0.376-4.141-0.39
		c-0.33-0.002-0.659-0.003-0.989-0.003c-1.609,0-3.229,0.023-4.857,0.061c-0.617,0.029-5.331,0.145-5.947,0.158
		c-0.895-0.133-1.893-0.167-2.926-0.167c-1.088,0-2.216,0.038-3.305,0.038c-0.345,0-0.686-0.004-1.02-0.016
		c-2.236-0.486-7.61-0.432-9.917-0.858l-4.313-0.86c-0.171,0.012-0.336,0.21-0.497,0.21c-2.101,0-3.324-0.683-5.413-0.683
		c-0.045,0-0.091,0-0.138,0c-2.695-1-6.263-2.559-8.627-3.219c-0.401-0.242-2.178-0.941-2.695-1.069
		c-0.816-0.442-1.676-1.021-2.479-1.608c-0.659-0.475-1.274-1-1.805-1.572c-0.187-5.174-0.358-10.76-0.688-16.536
		c0.874-3.224,1.706-6.425,2.336-9.693c2.737-1.978,5.848-3.499,8.929-5.133c3.482-1.849,6.935-3.226,9.772-6.091l4.744-3.354
		c1.95-1.79,4.112-3.354,6.476-4.745c2.408-1.316,5.817-4.057,8.197-5.418c3.616-1.399,7.461-4.557,12.489-4.557
		c0.01,0,0.021,0,0.031,0c1.52-3,1.802-5.846,1.358-8.526c-1.018-6.047-5.682-11.67-7.817-16.343
		c-0.37,0.378-1.028,0.412-1.763,0.412c-0.529,0-1.098-0.064-1.628-0.064c-0.159,0-0.315-0.008-0.465,0.002
		c-1.777-1.806-2.443-4.763-2.17-8.632C52.792,50.25,54,50.818,54,49.14c0,0,0,0,0-0.014c0-4.6-0.533-10.001,0.828-13.37
		c0.243-0.2,0.409-0.416,0.652-0.616c0,0-0.135-2.422,1.886-6.262c4.328-8.985,10.271-15.865,21.478-17.957
		c1.261-0.243,2.6-0.945,3.99-0.945c0.226-0.353,1.222-0.613,2.222-0.613c1.027,0,2.064,0.273,2.297,1
		c0.659,0,1.505,0.014,2.107,0.115c2.106,0.358,3.811,0.774,5.675,1.375c4.012,1.318,7.451,3.109,10.332,5.574
		c1.348,1.133,2.579,2.278,3.683,3.656c2.079,2.278,2.947,5.499,3.005,5.842c-0.004-0.002-0.01-0.005-0.015-0.008
		c1.729,2.069,3.56,5.331,3.79,6.675c0.243,1.433,0,6.478,0,6.478c0,4.212-2.78,8.583-4.443,11.708
		c0.483-0.208,0.891-0.297,1.231-0.297c1.184,0,1.545,1.078,1.377,1.958c-1.21,4.256-1.285,8.71-6.628,8.71
		c-0.414,0-0.86-0.027-1.339-0.083c-1.419,4.384-3.124,8.498-5.417,12.022c-1.49,2.322-3.252,4.386-5.359,6.091
		c0.659,0.63,0.373,2.206,0.429,3.454c0.421-0.053,0.806-0.074,1.165-0.074c2.008,0,3.17,0.711,5.055,0.905
		c3.368,1.074,8.985,4.529,11.895,6.075c1.92,0.961,7.652,6.292,9.501,7.322c1.705,0.746,3.311,1.576,5.173,2.166
		c5.489,2.134,11.15,4.957,15.964,7.766C151.871,113.268,150.152,129.619,148.59,139.393z"/>
</g>
<g id="Layer_2">
	<g>
		<path fill="#DF5D1E" d="M178.24,132.154l-7.528-8.36l-5.015-4.56l3.077-3.682l0.189-0.217c1.718-1.921,3.382-3.795,5.058-5.684
			l0.071-0.08c8.739-9.844,17.755-20,27.094-28.604c-5.418-5.751-11.542-11.274-17.478-16.628
			c-5.411-4.882-10.979-9.906-16.023-15.093l-3.279-3.372l3.166-3.479c1.953-2.146,4.066-3.799,6.11-5.399
			c1.804-1.413,3.505-2.744,4.885-4.266l3.08-3.395l3.649,2.774c8.516,6.474,16.534,14.533,23.931,22.277
			c2.435,2.437,5.379,4.919,8.496,7.548c5.715,4.82,11.625,9.804,15.621,15.684l1.93,2.838l-1.955,2.82
			c-2.008,2.9-4.469,5.14-6.85,7.304c-1.637,1.489-3.18,2.893-4.417,4.379c-1.542,1.782-2.926,3.555-4.392,5.433
			c-2.727,3.487-5.544,7.096-9.042,10.355l-2.878,2.602c-6.358,5.737-12.932,11.67-19.267,18.219l-4.716,4.402L178.24,132.154z"/>
	</g>
	<path fill="#DF5D1E" d="M392.273,79.753c-0.051-0.13-0.121-0.26-0.2-0.38c-0.062-0.09-0.12-0.18-0.19-0.26
		c-0.01-0.021-0.02-0.03-0.029-0.051c-8.221-9.419-18.289-16.91-27.17-25.66c-7.851-7.72-15.801-15.31-23.83-22.84
		c-1.029-0.96-2.511-0.94-3.539,0c-5.16,4.7-10.621,9.4-16.142,13.67c-1.09,0.85-0.85,2.65,0,3.54c7.55,7.83,16.25,14.69,24.5,21.77
		c3.892,3.35,7.729,6.74,11.29,10.43c0.26,0.271,0.49,0.521,0.71,0.76c-6.271,5.261-12.59,10.439-18.271,16.34
		c-4.359,4.761-8.101,10.029-12.351,14.891c-1.42,1.45-2.85,2.9-4.278,4.359c-0.95,0.971-0.972,2.561,0,3.529
		c2.59,3.33,5.438,6.461,8.238,9.62c1.461,1.71,2.92,3.421,4.391,5.13c0.479,0.602,1.25,0.791,2,0.7c0.57-0.06,1.131-0.3,1.529-0.7
		c1.08-0.908,2.07-1.908,3.021-2.959c4.609-4.529,9.22-9.061,13.83-13.601c8.189-6.83,15.279-14.61,22.67-22.28
		c4.47-4.38,8.93-8.77,13.398-13.16c0.03-0.039,0.062-0.068,0.092-0.108C392.773,81.604,392.753,80.562,392.273,79.753z"/>
	<path fill="#DF5D1E" d="M312.77,78.734c-8.238-8.24-16.43-16.521-24.278-25.141c-7.61-8.36-17.261-14.37-24.972-22.61
		c-1-1.07-2.51-0.83-3.539,0c-5.551,4.51-10.819,9.35-16.25,14c-1.011,0.87-0.931,2.65,0,3.54
		c11.761,11.14,24.279,21.42,36.109,32.47c-2.229,2.47-5.029,4.41-7.38,6.77c-2.979,2.971-5.95,5.95-8.931,8.92
		c-6.359,6.37-11.721,13.641-18.299,19.801c-0.15,0.149-0.28,0.301-0.392,0.461c-1.351,0.68-2.188,2.6-0.858,4.078
		c4.39,4.86,9.299,9.2,14,13.75c0.77,0.74,1.658,0.842,2.438,0.58c0.37-0.09,0.75-0.27,1.101-0.58c4.26-3.77,7.67-8.43,11.66-12.479
		c5.35-5.439,10.939-10.63,16.109-16.25c4.25-4.609,8.479-9.2,13.08-13.471c3.561-3.311,7.311-6.529,10.398-10.301
		c0.172-0.209,0.28-0.42,0.381-0.64C313.65,80.764,313.68,79.654,312.77,78.734z"/>
</g>
</svg>
