<?xml version="1.0" encoding="utf-8"?>
<!-- Generator: Adobe Illustrator 16.0.0, SVG Export Plug-In . SVG Version: 6.00 Build 0)  -->
<!DOCTYPE svg PUBLIC "-//W3C//DTD SVG 1.1//EN" "http://www.w3.org/Graphics/SVG/1.1/DTD/svg11.dtd">
<svg version="1.1" id="Layer_1" xmlns="http://www.w3.org/2000/svg" xmlns:xlink="http://www.w3.org/1999/xlink" x="0px" y="0px"
	 width="81.258px" height="102.635px" viewBox="0 0 81.258 102.635" enable-background="new 0 0 81.258 102.635"
	 xml:space="preserve">
<path fill="#81C0AB" d="M27.942,87.178c-0.199-2.014-3.6-3.408-3.991-4.846c-0.172,0.137-0.34,0.279-0.506,0.422
	c-0.161,0.143-0.321,0.287-0.478,0.432c-0.348,0.326-0.682,0.666-1.001,1.018c-0.002,0.002-0.004,0.004-0.006,0.006
	c-0.157,0.174-0.31,0.35-0.459,0.527c-0.005,0.004-0.009,0.01-0.014,0.016c-0.147,0.176-0.291,0.355-0.431,0.537
	c-0.008,0.008-0.014,0.016-0.02,0.025c-0.139,0.178-0.275,0.361-0.407,0.547c-0.008,0.012-0.015,0.021-0.021,0.031
	c-0.132,0.186-0.259,0.371-0.386,0.562c-0.007,0.012-0.014,0.021-0.021,0.032c-0.124,0.19-0.245,0.382-0.363,0.575
	c-0.008,0.014-0.016,0.027-0.023,0.039c-0.117,0.195-0.232,0.391-0.342,0.59c-0.009,0.014-0.017,0.027-0.024,0.041
	c-0.11,0.197-0.219,0.4-0.325,0.604c-0.007,0.014-0.014,0.026-0.02,0.041c-0.105,0.203-0.208,0.41-0.308,0.619
	c-0.006,0.012-0.012,0.025-0.019,0.039c-0.101,0.209-0.197,0.422-0.292,0.637c-0.005,0.012-0.009,0.023-0.015,0.035
	c-0.095,0.217-0.187,0.436-0.275,0.655c-0.004,0.011-0.008,0.022-0.012,0.032c-0.09,0.223-0.177,0.447-0.261,0.676
	c-0.003,0.006-0.006,0.014-0.008,0.021c-0.085,0.229-0.167,0.463-0.246,0.697c-0.001,0.004-0.003,0.01-0.004,0.014
	c-0.845,2.504-1.369,5.244-1.646,8.119c0.444,0.078,0.89,0.158,1.336,0.233c1.436,0.243,2.854,0.468,4.269,0.679
	c0.089-0.625,0.205-1.199,0.33-1.681C23.045,94.977,28.22,89.969,27.942,87.178"/>
<path fill="#81C0AB" d="M43.91,91.172c-0.628-3.855,2.56-5.27,3.137-7.984c-1.459-1.965-5.627-1.217-5.133-5.133
	c-3.108,0.354-4.861-0.651-7.128-1.141c-3.698,7.275,2.638,10.645,3.136,17.678c-1.467,3.156-6.106,3.834-6.532,7.438
	c2.157,0.206,4.344,0.38,6.6,0.511c4.119,0.237,8.249,0.34,12.377,0.275c-0.577-2.652-1.667-5.748-3.035-7.654
	C46.217,93.61,44.281,93.452,43.91,91.172"/>
<path fill="#D0202B" d="M46.761,62.088c0.625,1.561,1.182,3.189,2.281,4.277C48.247,64.973,47.715,63.321,46.761,62.088"/>
<path fill="#48132D" d="M27.942,23.596c-1.06,0.185-1.684,0.976-1.141,1.996c0.67-0.09,1.07-0.451,1.996-0.285
	c-0.09,0.662,0.046,1.096,0.286,1.426c1.781,0.07,2.143-1.279,2.28-2.852C31.219,22.969,28.495,23.156,27.942,23.596"/>
<path fill="#48132D" d="M66.149,31.295c-0.447-11.623-4.028-20.113-9.979-26.232c-0.831-1.068-1.78-2.02-2.851-2.851
	c-4.697-2.4-12.849-3.015-18.305-1.01c-0.783,0.288-1.514,0.628-2.168,1.025c-0.55,0.335-1.048,0.708-1.482,1.124
	c-0.687,0.117-0.62-0.52-1.426-0.285c-7.766,4.589-11.051,13.66-13.115,23.951c-3.455,6.572,0.694,13.895,0.57,21.385
	c0.179,0.865-0.365,2.455,0.285,2.85c0.047,2.047,0.474,3.709,0.57,5.703c0.388,0.014,0.627,0.072,0.763,0.166
	c0.046,0.029,0.079,0.064,0.104,0.104c0.032,0.051,0.046,0.107,0.046,0.172c0.006,0.422-0.593,1.102-0.627,1.84
	c-0.007,0.146-0.007,0.291-0.001,0.438c0.028,0.682,0.188,1.359,0.41,2.021c0.061,0.182,0.126,0.365,0.194,0.545
	c0.48,1.262,1.113,2.465,1.392,3.553c0.78-0.447,1.427-1.027,2.033-1.652c0.376-0.389,0.738-0.795,1.104-1.197
	c1.019,1.49,2.43,3.982,3.991,3.992c0.525-0.807,1.475-1.188,1.427-2.566c0.402,0.43,1.385,0.9,1.995,0.284
	c0.166-0.089,0.258-0.214,0.301-0.358c0.014-0.049,0.023-0.1,0.027-0.152c0.003-0.03,0.004-0.059,0.004-0.09
	c-0.002-0.434-0.255-0.957-0.271-1.305c-0.009-0.248,0.102-0.406,0.51-0.375c-0.016-0.363-0.365-0.395-0.285-0.855
	c1.297-0.318,2.16-1.072,3.422-1.426c-0.643-1.732-2.565-2.188-1.996-5.133c-2.572-2.689-1.561-8.254-0.671-12.111
	c0.04-0.594,0.288-1.24,0.457-1.824c-0.99-0.402-1.873-0.891-2.638-1.461c-4.273-3.182-2.389-10.307-4.276-16.537
	c1.155,1.393,1.78-0.77,3.136-0.855c1.046,0,2.092,0,3.137,0c0.254,0.127,0.51,0.252,0.57,0.57c0.837,2.205-0.262,6.344,0.57,8.555
	c0.095,0,0.189,0,0.284,0c1.131-0.105,2.733,0.262,3.422-0.285c0.243,0.053,0.27-0.111,0.286-0.285
	c-0.181-1.055-1.602-0.871-2.853-0.855c0.269-2.684-0.418-5.801,0-7.699c-1.582-2-6.027-2.062-8.553-0.855
	c1.587-4.398,3.638-8.336,6.558-11.404c1.598,4.01,4.795,6.42,7.413,9.408c-0.912,0.609-2.395,0.646-2.565,1.996
	c0.147,0.422,0.421,0.719,0.569,1.141c1.454-0.104,2.55-2.172,3.992-0.57c-0.728,0.889-2.89,0.344-3.137,1.711
	c-0.08,0.461,0.27,0.492,0.285,0.855c1,0.521,3.038,0.004,3.137,1.426c0.965-0.176,0.361-1.918,0.855-2.566
	c1.896,0.979,6.508,1.648,8.553,3.422c0.229,0.15,0.464,0.296,0.855,0.285c0.936,2.502-0.613,4.605-1.711,5.988
	c-1.284,1.772-2.713,3.408-4.255,4.928c-0.014,0.164-0.023,0.293-0.023,0.357c0,0.78,0.038,1.572-0.001,2.352
	c-0.001,0.023-0.003,0.047-0.003,0.07c0.001-0.004,0.004-0.006,0.007-0.01c0.062-0.223,0.238-0.332,0.569-0.285
	c0,1.141,0,2.281,0,3.422c0,0.285,0,0.57,0,0.855c-0.123,3.014-0.227,6.045-0.855,8.553c-0.31,2.037,1.055,2.545,0.286,4.277
	c0.095,0.078,0.134,0.212,0.14,0.389c0.015,0.562-0.321,1.551-0.311,2.484c0,0.08,0.005,0.16,0.011,0.238
	c0.012,0.139,0.032,0.275,0.064,0.408c0.096,0.396,0.297,0.76,0.665,1.043c0.954,1.232,1.486,2.885,2.281,4.277
	c-0.048,0.617,1.011,0.129,1.425,0.283c0.971-1.055,0.348-3.705,0.972-5.107c0.049-0.111,0.104-0.215,0.17-0.309
	c0.143,0.589,0.298,1.25,0.475,1.92c0.203,0.77,0.436,1.549,0.712,2.246c0.121,0.307,0.251,0.6,0.391,0.865
	c0.053,0.102,0.107,0.197,0.163,0.289c0.386,0.652,0.844,1.111,1.396,1.238c0.965-0.557,0.109-2.934,1.141-3.422
	c0.775,2.266,1.905,4.178,3.707,5.416c0.301-0.447,0.61-0.885,0.766-1.479c0.052-0.199,0.085-0.414,0.096-0.653
	c0.007-0.136,0.005-0.28-0.007-0.433c1.003,0.328,1.045,1.617,1.997,1.994c0.694-0.539,0.809-1.66,1.425-2.279
	c0.316,1.109,0.789,2.062,1.426,2.85c1.027-0.092,2.627-0.859,3.136-2.281c-0.762-2.562-1.604-5.047-2.28-7.697
	c-1.735-3.895-1.316-8.463-0.749-13.193c0.349-2.898,0.751-5.859,0.749-8.762C66.149,35.667,66.149,33.481,66.149,31.295"/>
<path fill="#48132D" d="M41.629,35.288c-1.287-0.693-2.173,1.159-3.992,0.854c-0.308,0.472-2.543,0.472-2.851,0
	c-1.195-0.039-1.273-1.197-2.852-0.854C32.683,40.264,40.073,37.641,41.629,35.288"/>
<path fill="#D19A6F" d="M31.935,35.288c1.578-0.344,1.656,0.814,2.852,0.854c0.308,0.472,2.543,0.472,2.851,0
	c1.819,0.306,2.705-1.547,3.992-0.854C40.073,37.641,32.683,40.264,31.935,35.288 M29.084,26.733
	c-0.24-0.33-0.376-0.764-0.286-1.426c-0.926-0.166-1.326,0.195-1.996,0.285c-0.543-1.021,0.081-1.812,1.141-1.996
	c0.553-0.44,3.276-0.627,3.422,0.285C31.227,25.454,30.865,26.803,29.084,26.733z M38.207,58.381
	c2.078-1.154,4.28-2.185,6.273-3.422c0.38,0,0.761,0,1.14,0c0-0.57,0-1.141,0-1.711c0.096,0,0.19,0,0.285,0
	c0.629-2.508,0.732-5.539,0.855-8.553c0-0.285,0-0.57,0-0.855c0-1.141,0-2.281,0-3.422c-0.331-0.047-0.507,0.062-0.569,0.285
	c-0.003,0.004-0.006,0.006-0.007,0.01c0-0.023,0.002-0.047,0.003-0.07c0.039-0.779,0.001-1.571,0.001-2.352
	c0-0.064,0.01-0.193,0.023-0.357c1.542-1.52,2.971-3.155,4.255-4.928c1.098-1.383,2.646-3.486,1.711-5.988
	c-0.392,0.011-0.626-0.135-0.855-0.285c-2.045-1.773-6.656-2.443-8.553-3.422c-0.494,0.648,0.109,2.391-0.855,2.566
	c-0.099-1.422-2.137-0.904-3.137-1.426c-0.016-0.363-0.365-0.395-0.285-0.855c0.247-1.367,2.409-0.822,3.137-1.711
	c-1.442-1.602-2.538,0.467-3.992,0.57c-0.148-0.422-0.422-0.719-0.569-1.141c0.171-1.35,1.653-1.387,2.565-1.996
	c-2.618-2.988-5.815-5.398-7.413-9.408c-2.92,3.068-4.971,7.006-6.558,11.404c2.525-1.207,6.971-1.145,8.553,0.855
	c-0.418,1.898,0.269,5.016,0,7.699c1.251-0.016,2.672-0.199,2.853,0.855c-0.017,0.174-0.043,0.338-0.286,0.285
	c-0.688,0.547-2.291,0.18-3.422,0.285c-0.095,0-0.189,0-0.284,0c-0.832-2.211,0.267-6.35-0.57-8.555
	c-0.061-0.318-0.316-0.443-0.57-0.57c-1.045,0-2.091,0-3.137,0c-1.355,0.086-1.98,2.248-3.136,0.855
	c1.888,6.23,0.003,13.355,4.276,16.537c0.765,0.57,1.647,1.059,2.638,1.461c-0.169,0.584-0.417,1.23-0.457,1.824
	c-0.89,3.857-1.901,9.422,0.671,12.111C35.471,55.227,35.895,57.749,38.207,58.381z"/>
<path fill="#81C0AB" d="M41.344,64.37c1.135-2.477,0.848-6.375,4.562-6.273c-0.012-0.082-0.013-0.156-0.006-0.221
	c0.005-0.047,0.017-0.09,0.031-0.127c0.012-0.029,0.025-0.057,0.043-0.078c0.05-0.07,0.122-0.117,0.218-0.145
	c0.769-1.732-0.596-2.24-0.286-4.277c-0.095,0-0.189,0-0.285,0c0,0.57,0,1.141,0,1.711c-0.379,0-0.76,0-1.14,0
	c-1.993,1.237-4.195,2.268-6.273,3.422c-2.312-0.633-2.736-3.154-5.417-3.422c-0.569,2.944,1.354,3.4,1.996,5.133
	c-1.262,0.354-2.125,1.107-3.422,1.426c-0.08,0.461,0.27,0.492,0.285,0.855c0.151,0.229,0.298,0.463,0.285,0.855
	C35.413,63.268,39.399,62.797,41.344,64.37"/>
<path fill="#F8B018" d="M51.608,61.233c-0.066,0.094-0.121,0.197-0.17,0.309c0.157,0.541,0.403,1.08,0.645,1.611
	C51.906,62.483,51.751,61.822,51.608,61.233"/>
<path fill="#F27867" d="M17.67,91.79c0.079-0.234,0.161-0.468,0.246-0.697c0.002-0.008,0.005-0.016,0.008-0.021
	c0.084-0.229,0.171-0.453,0.261-0.676c0.004-0.01,0.008-0.021,0.012-0.032c0.089-0.22,0.181-0.438,0.275-0.655
	c0.006-0.012,0.01-0.023,0.015-0.035c0.095-0.215,0.191-0.428,0.292-0.637c0.007-0.014,0.013-0.027,0.019-0.039
	c0.1-0.209,0.202-0.416,0.308-0.619c0.006-0.015,0.013-0.027,0.02-0.041c0.106-0.203,0.215-0.406,0.325-0.604
	c0.008-0.014,0.016-0.027,0.024-0.041c0.109-0.199,0.225-0.395,0.342-0.59c0.008-0.012,0.016-0.025,0.023-0.039
	c0.118-0.193,0.239-0.385,0.363-0.575c0.008-0.011,0.015-0.021,0.021-0.032c0.127-0.191,0.254-0.377,0.386-0.562
	c0.007-0.01,0.014-0.02,0.021-0.031c0.132-0.186,0.269-0.369,0.407-0.547c0.006-0.01,0.012-0.018,0.02-0.025
	c0.14-0.182,0.283-0.361,0.431-0.537c0.005-0.006,0.009-0.012,0.014-0.016c0.149-0.178,0.302-0.354,0.459-0.527
	c0.002-0.002,0.004-0.004,0.006-0.006c0.319-0.352,0.653-0.691,1.001-1.018c0.334-0.961,0.532-1.939,0.236-3.006
	c-0.341-0.192-0.598-0.412-0.693-0.699c-1.142-3.422,0.285-6.559,2.566-9.693c1.995-2.566,0-3.422-2.281-5.418
	c-0.091-0.076-0.166-0.152-0.233-0.229c-0.606,0.625-1.253,1.205-2.033,1.654c-0.278-1.09-0.911-2.293-1.392-3.555
	c-0.068-0.18-0.134-0.363-0.194-0.545c-0.223-0.662-0.382-1.34-0.41-2.021c-0.006-0.146-0.006-0.291,0.001-0.438
	c0.034-0.738,0.633-1.418,0.627-1.84c0-0.064-0.014-0.121-0.046-0.172c-0.024-0.039-0.058-0.074-0.104-0.104
	c-0.136-0.094-0.375-0.15-0.763-0.164c-0.619,0.037-1.214,0.096-1.792,0.17c-3.803,0.492-6.721,1.776-8.962,3.694
	C1.258,66.163,0.259,76.393,0,88.034c0,2.283,0,4.562,0,6.844v1.74c0.345-0.01,0.71,0.027,1.094,0.123
	c4.938,1.229,9.915,2.297,14.927,3.182c0.276-2.875,0.801-5.615,1.646-8.119C17.667,91.799,17.669,91.793,17.67,91.79"/>
<path fill="#F8B018" d="M52.448,66.651c0.269-0.402,0.362-0.822,0.347-1.252c-0.276-0.697-0.509-1.477-0.712-2.246
	c-0.241-0.531-0.487-1.07-0.645-1.611c-0.624,1.402-0.001,4.053-0.972,5.109c-0.414-0.156-1.473,0.332-1.425-0.285
	c-1.1-1.088-1.656-2.717-2.281-4.277c-0.368-0.283-0.569-0.646-0.665-1.043c-0.032-0.133-0.053-0.27-0.064-0.408
	c-0.006-0.078-0.011-0.158-0.011-0.238c-0.011-0.934,0.325-1.922,0.311-2.484c-0.006-0.177-0.045-0.311-0.14-0.389
	c-0.096,0.027-0.168,0.074-0.218,0.145c-0.018,0.021-0.031,0.049-0.043,0.078c-0.015,0.037-0.026,0.08-0.031,0.127
	c-0.007,0.064-0.006,0.139,0.006,0.221c-3.714-0.102-3.427,3.797-4.562,6.273c-1.944-1.572-5.931-1.102-9.409-1.141
	c0.013-0.393-0.134-0.625-0.285-0.855c-0.408-0.031-0.519,0.127-0.51,0.375c0.017,0.348,0.27,0.871,0.271,1.305
	c0,0.031-0.001,0.06-0.004,0.09c-0.004,0.053-0.014,0.104-0.027,0.152c-0.043,0.145-0.135,0.27-0.301,0.358
	c-0.61,0.616-1.593,0.146-1.995-0.284c0.048,1.379-0.901,1.76-1.427,2.566c-1.562-0.01-2.973-2.502-3.991-3.992
	c-0.365,0.402-0.728,0.809-1.104,1.197c0.067,0.076,0.143,0.152,0.233,0.229c2.281,1.996,4.276,2.852,2.281,5.418
	c-2.281,3.135-3.708,6.271-2.566,9.693c0.096,0.287,0.353,0.507,0.693,0.699c0.296,1.066,0.098,2.045-0.236,3.006
	c0.156-0.145,0.316-0.289,0.478-0.432c0.166-0.143,0.334-0.285,0.506-0.422c0.392,1.438,3.792,2.832,3.991,4.846
	c0.277,2.791-4.897,7.799-5.987,11.976c-0.125,0.481-0.241,1.056-0.33,1.681c3.248,0.486,6.47,0.885,9.765,1.196
	c0.426-3.604,5.065-4.282,6.532-7.438c-0.498-7.033-6.834-10.402-3.136-17.678c2.267,0.489,4.02,1.494,7.128,1.141
	c-0.494,3.916,3.674,3.168,5.133,5.133c-0.577,2.715-3.765,4.129-3.137,7.984c0.371,2.279,2.307,2.438,3.421,3.99
	c1.368,1.906,2.458,5.002,3.035,7.654c1.739-0.029,3.478-0.09,5.214-0.182c-0.577-7.857-2.31-15.555-4.843-23.154
	C49.312,75.204,49.882,70.928,52.448,66.651"/>
<path fill="#F27867" d="M68.43,67.506c-0.509,1.42-2.108,2.188-3.136,2.281c-0.637-0.789-1.109-1.742-1.426-2.852
	c-0.616,0.619-0.73,1.74-1.425,2.281c-0.952-0.379-0.994-1.668-1.997-1.996c0.012,0.152,0.014,0.297,0.007,0.433
	c-0.011,0.239-0.044,0.454-0.096,0.653c-0.155,0.594-0.465,1.031-0.766,1.48c-1.802-1.24-2.932-3.152-3.707-5.418
	c-1.031,0.488-0.176,2.865-1.141,3.422c-0.552-0.127-1.01-0.586-1.396-1.238c-0.056-0.092-0.11-0.188-0.163-0.289
	c-0.14-0.266-0.27-0.559-0.391-0.865c0.016,0.43-0.078,0.85-0.347,1.252c-2.566,4.277-3.137,8.553-1.711,12.83
	c2.533,7.6,4.266,15.297,4.843,23.154c1.398-0.074,2.794-0.164,4.188-0.285c2.949-0.256,5.914-0.627,8.865-1.125
	c3.597-4.258,7.204-8.506,10.896-12.682c0.007-0.361,0.015-0.723,0.021-1.078c0.044-2.262,1.191-3.572,1.426-5.133
	c1.872-12.492-5.898-19.309-14.827-22.525c0.676,2.65,1.519,5.135,2.28,7.697V67.506"/>
</svg>
