<?xml version="1.0" encoding="utf-8"?>
<!-- Generator: Adobe Illustrator 16.0.0, SVG Export Plug-In . SVG Version: 6.00 Build 0)  -->
<!DOCTYPE svg PUBLIC "-//W3C//DTD SVG 1.1//EN" "http://www.w3.org/Graphics/SVG/1.1/DTD/svg11.dtd">
<svg version="1.1" id="Layer_1" xmlns="http://www.w3.org/2000/svg" xmlns:xlink="http://www.w3.org/1999/xlink" x="0px" y="0px"
	 width="80px" height="100px" viewBox="0.629 1.317 80 100" enable-background="new 0.629 1.317 80 100" xml:space="preserve">
<g>
	<path fill="#81C0AB" d="M27.943,85.66c-0.199-2.014-3.6-3.407-3.991-4.846c-0.172,0.137-0.34,0.278-0.506,0.422
		c-0.161,0.144-0.321,0.287-0.478,0.433c-0.348,0.325-0.682,0.666-1.001,1.018c-0.002,0.002-0.004,0.004-0.006,0.006
		c-0.157,0.174-0.31,0.35-0.459,0.527c-0.005,0.004-0.009,0.01-0.014,0.016c-0.147,0.176-0.291,0.355-0.431,0.537
		c-0.008,0.008-0.014,0.016-0.02,0.025c-0.139,0.178-0.275,0.36-0.407,0.547c-0.008,0.012-0.015,0.021-0.021,0.031
		c-0.132,0.186-0.259,0.371-0.386,0.562c-0.007,0.012-0.014,0.021-0.021,0.032c-0.124,0.189-0.245,0.382-0.363,0.574
		c-0.008,0.015-0.016,0.027-0.023,0.039c-0.117,0.195-0.232,0.392-0.342,0.59c-0.009,0.015-0.017,0.027-0.024,0.041
		c-0.11,0.197-0.219,0.4-0.325,0.604c-0.007,0.015-0.014,0.026-0.02,0.041c-0.105,0.203-0.208,0.41-0.308,0.619
		c-0.006,0.012-0.012,0.024-0.019,0.039c-0.101,0.209-0.197,0.422-0.292,0.637c-0.005,0.013-0.009,0.022-0.015,0.035
		c-0.095,0.217-0.187,0.437-0.275,0.655c-0.004,0.011-0.008,0.021-0.012,0.031c-0.09,0.224-0.177,0.447-0.261,0.676
		c-0.003,0.007-0.006,0.015-0.008,0.021c-0.085,0.229-0.167,0.463-0.246,0.697c-0.001,0.004-0.003,0.01-0.004,0.014
		c-0.845,2.504-1.369,5.244-1.646,8.119c0.444,0.078,0.89,0.158,1.336,0.232c1.436,0.244,2.854,0.469,4.269,0.68
		c0.089-0.625,0.205-1.199,0.33-1.682C23.046,93.46,28.222,88.451,27.943,85.66"/>
	<path fill="#81C0AB" d="M43.911,89.654c-0.628-3.854,2.561-5.271,3.137-7.983c-1.459-1.965-5.627-1.217-5.133-5.133
		c-3.107,0.354-4.86-0.652-7.127-1.142c-3.698,7.274,2.638,10.646,3.136,17.678c-1.467,3.156-6.106,3.834-6.532,7.438
		c2.157,0.205,4.344,0.38,6.6,0.511c4.119,0.237,8.249,0.34,12.376,0.274c-0.577-2.651-1.667-5.748-3.035-7.653
		C46.218,92.093,44.282,91.935,43.911,89.654"/>
	<path fill="#D0202B" d="M46.762,63.405c0.625,1.562,1.183,3.188,2.281,4.277C48.248,66.291,47.716,64.639,46.762,63.405"/>
	<path fill="#48132D" d="M27.943,24.914c-1.06,0.185-1.684,0.976-1.141,1.996c0.67-0.09,1.07-0.451,1.996-0.285
		c-0.09,0.662,0.046,1.096,0.286,1.426c1.781,0.07,2.143-1.279,2.28-2.852C31.22,24.286,28.497,24.474,27.943,24.914"/>
	<path fill="#48132D" d="M66.149,32.612C65.703,20.989,62.122,12.5,56.171,6.38c-0.831-1.068-1.779-2.02-2.852-2.851
		c-4.696-2.4-12.848-3.015-18.304-1.01c-0.783,0.288-1.514,0.628-2.168,1.025c-0.55,0.335-1.048,0.708-1.482,1.124
		c-0.688,0.117-0.62-0.52-1.426-0.285c-7.766,4.589-11.051,13.66-13.115,23.951c-3.455,6.572,0.694,13.895,0.57,21.385
		c0.179,0.865-0.365,2.456,0.285,2.85c0.047,2.047,0.474,3.709,0.57,5.703c0.388,0.014,0.627,0.071,0.763,0.166
		c0.046,0.028,0.079,0.063,0.104,0.104c0.032,0.051,0.046,0.106,0.046,0.172c0.006,0.422-0.593,1.102-0.627,1.84
		c-0.007,0.146-0.007,0.291-0.001,0.438c0.028,0.682,0.188,1.359,0.41,2.021c0.061,0.182,0.126,0.365,0.194,0.545
		c0.48,1.262,1.113,2.465,1.392,3.553c0.78-0.447,1.427-1.027,2.033-1.652c0.376-0.389,0.738-0.795,1.104-1.197
		c1.019,1.49,2.43,3.982,3.991,3.992c0.525-0.807,1.475-1.188,1.427-2.565c0.402,0.43,1.385,0.899,1.995,0.284
		c0.166-0.09,0.258-0.215,0.301-0.358c0.014-0.049,0.023-0.1,0.027-0.151c0.003-0.03,0.004-0.06,0.004-0.09
		c-0.002-0.435-0.255-0.957-0.271-1.306c-0.009-0.248,0.102-0.406,0.51-0.375c-0.016-0.363-0.365-0.396-0.285-0.854
		c1.297-0.318,2.16-1.072,3.422-1.427c-0.643-1.731-2.565-2.188-1.996-5.133c-2.572-2.688-1.561-8.254-0.671-12.111
		c0.04-0.594,0.288-1.24,0.457-1.824c-0.99-0.402-1.873-0.891-2.638-1.461c-4.273-3.182-2.389-10.307-4.276-16.537
		c1.155,1.393,1.78-0.77,3.136-0.855c1.046,0,2.092,0,3.137,0c0.254,0.127,0.51,0.252,0.57,0.57c0.837,2.205-0.262,6.344,0.57,8.555
		c0.095,0,0.189,0,0.284,0c1.131-0.105,2.733,0.262,3.422-0.285c0.243,0.053,0.27-0.111,0.286-0.285
		c-0.181-1.055-1.602-0.871-2.853-0.855c0.269-2.684-0.418-5.801,0-7.699c-1.582-2-6.027-2.062-8.553-0.855
		c1.587-4.398,3.638-8.336,6.558-11.404c1.598,4.01,4.795,6.42,7.413,9.408c-0.912,0.609-2.395,0.646-2.565,1.996
		c0.147,0.422,0.421,0.719,0.569,1.141c1.454-0.104,2.55-2.172,3.991-0.57c-0.728,0.889-2.889,0.344-3.136,1.711
		c-0.08,0.461,0.27,0.492,0.285,0.855c1,0.521,3.037,0.004,3.137,1.426c0.965-0.176,0.361-1.918,0.855-2.566
		c1.896,0.979,6.508,1.648,8.553,3.422c0.229,0.15,0.464,0.296,0.854,0.285c0.937,2.502-0.612,4.605-1.711,5.988
		c-1.284,1.772-2.713,3.408-4.255,4.928c-0.014,0.164-0.023,0.293-0.023,0.357c0,0.78,0.039,1.572,0,2.352
		c-0.002,0.023-0.004,0.047-0.004,0.07c0.002-0.004,0.004-0.006,0.008-0.01c0.062-0.223,0.238-0.332,0.568-0.285
		c0,1.141,0,2.281,0,3.422c0,0.285,0,0.57,0,0.855c-0.123,3.014-0.227,6.045-0.855,8.553c-0.309,2.037,1.056,2.545,0.287,4.277
		c0.095,0.078,0.134,0.212,0.14,0.389c0.015,0.562-0.321,1.551-0.312,2.484c0,0.08,0.006,0.16,0.012,0.238
		c0.012,0.139,0.031,0.274,0.064,0.407c0.096,0.396,0.297,0.761,0.664,1.043c0.954,1.232,1.486,2.886,2.281,4.277
		c-0.048,0.616,1.011,0.129,1.425,0.282c0.972-1.055,0.349-3.704,0.972-5.106c0.049-0.11,0.104-0.215,0.17-0.31
		c0.144,0.59,0.299,1.25,0.476,1.921c0.203,0.77,0.437,1.549,0.712,2.245c0.121,0.308,0.251,0.601,0.391,0.865
		c0.054,0.103,0.107,0.197,0.164,0.289c0.385,0.652,0.844,1.111,1.396,1.238c0.965-0.557,0.108-2.934,1.141-3.422
		c0.775,2.266,1.905,4.178,3.707,5.416c0.302-0.447,0.61-0.885,0.767-1.479c0.052-0.199,0.084-0.414,0.096-0.653
		c0.007-0.136,0.005-0.28-0.007-0.433c1.003,0.327,1.045,1.616,1.997,1.993c0.693-0.539,0.809-1.659,1.425-2.278
		c0.315,1.108,0.789,2.062,1.426,2.85c1.027-0.092,2.627-0.859,3.136-2.281c-0.762-2.562-1.604-5.047-2.279-7.697
		c-1.735-3.895-1.316-8.462-0.75-13.192c0.35-2.898,0.752-5.859,0.75-8.762C66.149,36.984,66.149,34.798,66.149,32.612"/>
	<path fill="#48132D" d="M41.63,36.605c-1.287-0.693-2.172,1.159-3.991,0.854c-0.308,0.472-2.543,0.472-2.851,0
		c-1.195-0.039-1.273-1.197-2.852-0.854C32.685,41.582,40.075,38.958,41.63,36.605"/>
	<path fill="#D19A6F" d="M31.937,36.605c1.578-0.344,1.656,0.814,2.852,0.854c0.308,0.472,2.543,0.472,2.851,0
		c1.819,0.306,2.705-1.547,3.991-0.854C40.075,38.958,32.685,41.582,31.937,36.605 M29.085,28.05
		c-0.24-0.33-0.376-0.764-0.286-1.426c-0.926-0.166-1.326,0.195-1.996,0.285c-0.543-1.021,0.081-1.812,1.141-1.996
		c0.553-0.44,3.276-0.627,3.422,0.285C31.229,26.771,30.867,28.12,29.085,28.05z M38.208,59.698
		c2.078-1.153,4.279-2.185,6.273-3.422c0.379,0,0.761,0,1.14,0c0-0.569,0-1.142,0-1.711c0.096,0,0.19,0,0.284,0
		c0.63-2.508,0.732-5.539,0.855-8.553c0-0.285,0-0.57,0-0.855c0-1.141,0-2.281,0-3.422c-0.33-0.047-0.507,0.062-0.568,0.285
		c-0.004,0.004-0.006,0.006-0.008,0.01c0-0.023,0.002-0.047,0.004-0.07c0.039-0.779,0-1.571,0-2.352
		c0-0.064,0.011-0.193,0.023-0.357c1.542-1.52,2.971-3.155,4.255-4.928c1.099-1.383,2.646-3.486,1.711-5.988
		c-0.392,0.011-0.626-0.135-0.854-0.285c-2.045-1.773-6.656-2.443-8.553-3.422c-0.494,0.648,0.108,2.391-0.855,2.566
		c-0.1-1.422-2.137-0.904-3.137-1.426c-0.016-0.363-0.365-0.395-0.285-0.855c0.247-1.367,2.409-0.822,3.136-1.711
		c-1.441-1.602-2.538,0.467-3.991,0.57c-0.148-0.422-0.422-0.719-0.569-1.141c0.171-1.35,1.653-1.387,2.565-1.996
		c-2.618-2.988-5.815-5.398-7.413-9.408c-2.92,3.068-4.971,7.006-6.558,11.404c2.525-1.207,6.971-1.145,8.553,0.855
		c-0.418,1.898,0.269,5.016,0,7.699c1.251-0.016,2.672-0.199,2.853,0.855c-0.017,0.174-0.043,0.338-0.286,0.285
		c-0.688,0.547-2.291,0.18-3.422,0.285c-0.095,0-0.189,0-0.284,0c-0.832-2.211,0.267-6.35-0.57-8.555
		c-0.061-0.318-0.316-0.443-0.57-0.57c-1.045,0-2.091,0-3.137,0c-1.355,0.086-1.98,2.248-3.136,0.855
		c1.888,6.23,0.003,13.355,4.276,16.537c0.765,0.57,1.647,1.059,2.638,1.461c-0.169,0.584-0.417,1.23-0.457,1.824
		c-0.89,3.857-1.901,9.422,0.671,12.111C35.473,56.545,35.896,59.066,38.208,59.698z"/>
	<path fill="#81C0AB" d="M41.345,65.688c1.135-2.477,0.848-6.375,4.562-6.273c-0.012-0.082-0.014-0.156-0.006-0.221
		c0.004-0.047,0.017-0.09,0.031-0.127c0.012-0.029,0.024-0.057,0.043-0.078c0.049-0.07,0.121-0.117,0.217-0.145
		c0.77-1.732-0.596-2.24-0.285-4.277c-0.096,0-0.189,0-0.285,0c0,0.57,0,1.141,0,1.711c-0.379,0-0.76,0-1.141,0
		c-1.992,1.237-4.194,2.268-6.272,3.422c-2.312-0.633-2.736-3.154-5.417-3.422c-0.569,2.943,1.354,3.4,1.996,5.133
		c-1.262,0.354-2.125,1.107-3.422,1.426c-0.08,0.461,0.27,0.492,0.285,0.855c0.151,0.229,0.298,0.463,0.285,0.855
		C35.415,64.586,39.4,64.114,41.345,65.688"/>
	<path fill="#F8B018" d="M51.608,62.551c-0.065,0.094-0.121,0.197-0.17,0.309c0.158,0.541,0.403,1.08,0.646,1.611
		C51.907,63.801,51.752,63.14,51.608,62.551"/>
	<path fill="#F27867" d="M17.671,90.272c0.079-0.234,0.161-0.468,0.246-0.697c0.002-0.008,0.005-0.016,0.008-0.021
		c0.084-0.229,0.171-0.453,0.261-0.677c0.004-0.01,0.008-0.021,0.012-0.031c0.089-0.221,0.181-0.438,0.275-0.655
		c0.006-0.012,0.01-0.022,0.015-0.035c0.095-0.215,0.191-0.428,0.292-0.637c0.007-0.015,0.013-0.027,0.019-0.039
		c0.1-0.209,0.202-0.416,0.308-0.619c0.006-0.015,0.013-0.026,0.02-0.041c0.106-0.203,0.215-0.405,0.325-0.604
		c0.008-0.014,0.016-0.026,0.024-0.041c0.109-0.198,0.225-0.395,0.342-0.59c0.008-0.012,0.016-0.024,0.023-0.039
		c0.118-0.192,0.239-0.385,0.363-0.574c0.008-0.012,0.015-0.021,0.021-0.032c0.127-0.19,0.254-0.377,0.386-0.562
		c0.007-0.011,0.014-0.021,0.021-0.031c0.132-0.187,0.269-0.369,0.407-0.547c0.006-0.01,0.012-0.019,0.02-0.025
		c0.14-0.182,0.283-0.361,0.431-0.537c0.005-0.006,0.009-0.012,0.014-0.016c0.149-0.178,0.302-0.354,0.459-0.527
		c0.002-0.002,0.004-0.004,0.006-0.006c0.319-0.352,0.653-0.691,1.001-1.018c0.334-0.961,0.532-1.939,0.236-3.006
		c-0.341-0.192-0.598-0.412-0.693-0.699c-1.142-3.422,0.285-3.725,2.566-6.858c1.995-2.566,0-3.422-2.281-5.418
		c-0.091-0.076-0.166-0.152-0.233-0.229c-0.606,0.625-1.253,1.205-2.033,1.653c-0.278-1.09-0.911-2.293-1.392-3.555
		c-0.068-0.181-0.134-0.363-0.194-0.545c-0.223-0.662-0.382-1.341-0.41-2.021c-0.006-0.146-0.006-0.291,0.001-0.438
		c0.034-0.738,0.633-1.419,0.627-1.841c0-0.063-0.014-0.121-0.046-0.172c-0.024-0.039-0.058-0.074-0.104-0.104
		c-0.136-0.094-0.375-0.15-0.763-0.164c-0.619,0.037-1.214,0.096-1.792,0.17c-3.803,0.492-6.721,1.775-8.962,3.694
		c-6.238,5.341-6.61,12.736-6.869,24.377c0,2.283,0,4.562,0,6.844v1.74c0.345-0.01,0.71,0.027,1.094,0.123
		c4.938,1.229,9.288,2.297,14.3,3.182c0.276-2.875,0.801-5.615,1.646-8.119C17.668,90.281,17.67,90.275,17.671,90.272"/>
	<path fill="#F8B018" d="M52.449,67.969c0.269-0.402,0.362-0.822,0.347-1.252c-0.275-0.697-0.509-1.478-0.712-2.246
		c-0.241-0.531-0.487-1.07-0.646-1.611c-0.623,1.402,0,4.053-0.972,5.109c-0.414-0.156-1.473,0.332-1.425-0.285
		c-1.1-1.088-1.656-2.717-2.281-4.277c-0.367-0.283-0.568-0.646-0.664-1.043c-0.033-0.133-0.054-0.27-0.064-0.408
		c-0.006-0.078-0.012-0.158-0.012-0.238c-0.011-0.934,0.326-1.922,0.312-2.483c-0.006-0.177-0.045-0.312-0.14-0.39
		c-0.096,0.027-0.168,0.074-0.219,0.146c-0.018,0.021-0.031,0.05-0.043,0.078c-0.015,0.037-0.025,0.08-0.031,0.127
		c-0.006,0.063-0.006,0.14,0.006,0.222c-3.713-0.103-3.426,3.797-4.562,6.272c-1.943-1.572-5.93-1.103-9.408-1.142
		c0.013-0.393-0.134-0.625-0.285-0.854c-0.408-0.031-0.519,0.127-0.51,0.375c0.017,0.349,0.27,0.871,0.271,1.306
		c0,0.03-0.001,0.06-0.004,0.09c-0.004,0.053-0.014,0.104-0.027,0.151c-0.043,0.146-0.135,0.271-0.301,0.358
		c-0.61,0.615-1.593,0.146-1.995-0.284c0.048,1.379-0.901,1.76-1.427,2.565c-1.562-0.01-2.973-2.502-3.991-3.992
		c-0.365,0.402-0.728,0.81-1.104,1.197c0.067,0.076,0.143,0.152,0.233,0.229c2.281,1.996,4.276,2.853,2.281,5.418
		c-2.281,3.135-3.708,3.436-2.566,6.857c0.096,0.287,0.353,0.508,0.693,0.699c0.296,1.066,0.098,2.045-0.236,3.006
		c0.156-0.145,0.316-0.289,0.478-0.432c0.166-0.143,0.334-0.285,0.506-0.422c0.392,1.438,3.792,2.832,3.991,4.846
		c0.277,2.791-4.897,7.799-5.987,11.977c-0.125,0.48-0.241,1.056-0.33,1.681c3.248,0.486,6.47,0.886,9.765,1.196
		c0.426-3.604,5.065-4.282,6.532-7.438c-0.498-7.032-6.834-10.401-3.136-17.678c2.267,0.489,4.02,1.494,7.127,1.142
		c-0.494,3.916,3.674,3.168,5.133,5.133c-0.577,2.715-3.765,4.129-3.137,7.983c0.37,2.279,2.307,2.438,3.421,3.99
		c1.368,1.905,2.458,5.002,3.035,7.653c1.738-0.028,3.478-0.09,5.214-0.182c-0.577-7.857-2.31-15.555-4.843-23.154
		C49.313,73.687,49.883,72.245,52.449,67.969"/>
	<path fill="#F27867" d="M68.431,68.823c-0.509,1.42-2.107,2.188-3.136,2.281c-0.637-0.789-1.108-1.742-1.426-2.853
		c-0.616,0.619-0.729,1.74-1.425,2.281c-0.952-0.379-0.994-1.668-1.998-1.996c0.013,0.152,0.015,0.297,0.008,0.434
		c-0.012,0.238-0.044,0.453-0.096,0.652c-0.155,0.594-0.465,1.031-0.767,1.48c-1.802-1.24-2.932-3.152-3.707-5.418
		c-1.03,0.488-0.176,2.865-1.141,3.422c-0.552-0.127-1.011-0.586-1.396-1.238c-0.057-0.092-0.111-0.188-0.164-0.289
		c-0.14-0.266-0.27-0.559-0.391-0.865c0.016,0.431-0.078,0.851-0.348,1.252c-2.565,4.277-3.137,5.719-1.711,9.995
		c2.533,7.601,4.267,15.297,4.844,23.154c1.398-0.074,2.794-0.164,4.188-0.285c2.949-0.256,5.914-0.627,8.865-1.125
		c3.598-4.258,6.204-8.506,9.896-12.682c0.007-0.361,0.015-0.723,0.021-1.078c0.044-2.262,1.191-3.572,1.427-5.133
		c1.871-12.492-4.898-16.474-13.828-19.69c0.677,2.65,1.52,5.135,2.28,7.697v0.003"/>
</g>
</svg>
