<?xml version="1.0" encoding="utf-8"?>
<!-- Generator: Adobe Illustrator 16.0.0, SVG Export Plug-In . SVG Version: 6.00 Build 0)  -->
<!DOCTYPE svg PUBLIC "-//W3C//DTD SVG 1.1//EN" "http://www.w3.org/Graphics/SVG/1.1/DTD/svg11.dtd">
<svg version="1.1" id="Layer_1" xmlns="http://www.w3.org/2000/svg" xmlns:xlink="http://www.w3.org/1999/xlink" x="0px" y="0px"
	 width="400px" height="150px" viewBox="0 0 400 150" enable-background="new 0 0 400 150" xml:space="preserve">
<g id="Layer_1_1_" opacity="0.6">
	<path fill="#FFFFFF" d="M91.281,96.83c-1.366-3.609-2.781-7.286-4.398-10.789c-0.953-2.079-1.674-2.333-3.826-1.809
		c-7.88,1.926-16.858,2.24-24.077,5.658c-0.414-6.219,0.27-12.639,0.452-18.835c0.077-2.58,1.453-10.184-1.367-11.781
		c-2.676-1.511-7.642-0.539-10.52-0.443c-4.447,0.144-9.289,0.79-13.697,0.019c-1.058-0.183-2.386,0.472-2.291,1.742
		c0.731,8.778,0.616,17.575,0.52,26.383c-0.019,1.404-0.134,2.607-0.115,3.666c-4.187-1.115-8.123-2.916-12.118-4.658
		c-3.879-1.685-6.882-3.754-11.262-3.859c-1.068-0.02-1.694,0.848-1.8,1.811c-0.779,6.65-4.158,12.656-6.679,18.769
		c-0.404,0.991,0.442,1.887,1.26,2.224c7.825,3.205,16.103,4.803,24.265,6.844c-3.551,3.967-6.622,8.336-9.461,12.879
		c-2.243,3.147-7.546,7.431-7.478,11.646c0.077,4.369,8.075,7.854,11.059,9.99c4.293,3.09,8.066,4.765,11.097-0.192
		c4.331-7.104,10.626-12.696,15.622-19.309c2.666,3.032,5.274,6.103,7.719,9.317c3.148,4.715,5.121,10.153,9.789,13.639
		c0.694,0.511,1.608,0.191,2.195-0.279c4.996-4.109,10.771-7.104,15.881-11.068c0.597-0.472,0.654-1.453,0.299-2.156
		c-0.049-0.172-0.135-0.346-0.26-0.52c-5.159-8.729-11.377-16.689-17.989-24.352c1.896-0.442,3.85-1.088,4.793-1.213
		c3.446-0.463,6.882-0.799,10.299-1.474c4.109-0.817,8.528-1.425,12.291-3.358C95.372,103.316,92.792,99.545,91.281,96.83z"/>
	<path fill="#FFFFFF" d="M194.648,99.902c-3.003-4.217-4.919-9.058-6.497-13.967c-0.491-1.5-1.28-3.966-3.359-3.771
		c-3.561,0.327-7.189,2.281-10.645,3.225c-4.456,1.223-8.884,2.338-13.167,3.984c0.048-8.684,0.414-17.402-0.222-26.065
		c-0.511-6.891-6.767-4.947-11.704-4.716c-4.466,0.202-11.723-2.474-13.696,3.109c-1.01,2.878,0.645,7.844,0.77,10.741
		c0.25,5.736,0.096,11.492,0.057,17.238c-8.258-3.107-16.603-5.977-25.15-8.172c-0.731-0.183-1.694,0.098-2.041,0.828
		c-2.666,5.698-4.042,11.8-5.958,17.758c-0.231,0.731,0.135,1.694,0.827,2.041c3.966,1.982,8.317,2.764,12.562,3.917
		c5.235,1.415,10.356,2.851,15.611,4.081c-2.243,2.994-4.601,5.9-6.862,8.875c-3.956,5.188-7.2,10.817-11.329,15.9
		c-0.625,0.789-0.722,1.779,0,2.56c4.37,4.61,9.048,9.452,14.803,12.312c0.809,0.404,2.051,0.289,2.474-0.646
		c2.349-5.198,6.728-9.559,10.395-13.87c2.628-3.089,5.294-6.121,7.835-9.269c0.039,0.048,0.066,0.104,0.105,0.164
		c3.023,3.569,6.546,6.688,9.346,10.462c2.696,3.619,4.996,7.324,8.018,10.713c0.116,1.396,1.848,2.54,3.003,1.203
		c3.707-4.341,9.443-5.948,13.754-9.539c1.376,0.414,2.936-1.616,1.761-3.128c-3.464-4.466-6.824-8.894-9.914-13.629
		c-2.57-3.937-5.852-7.276-8.306-11.251c4.475-1.29,8.489-3.745,12.974-5.063c4.64-1.366,9.432-1.577,13.908-3.552
		C194.85,102.001,195.168,100.645,194.648,99.902z"/>
	<path fill="#FFFFFF" d="M290.621,83.173c-0.086-0.239-0.201-0.433-0.346-0.597c-0.27-0.827-1.039-1.473-2.116-1.146
		c-8.529,2.243-17.075,4.477-25.353,7.508c0.143-8.758,0.683-17.507-0.214-26.247c0.378-1.05-0.163-2.464-1.626-2.503
		c-6.814-0.153-13.638-0.317-20.453-0.48c-0.549-0.01-0.953,0.163-1.242,0.433c-0.604,0.231-1.066,0.771-1.049,1.617
		c0.039,8.614,0.481,17.209,0.799,25.812c0.03,1.031,0.067,2.052,0.097,3.07c-8.44-2.906-16.872-5.822-25.312-8.729
		c-0.896-0.309-1.58,0.087-1.936,0.713c-0.327,0.202-0.616,0.539-0.771,1.029c-1.762,5.611-3.522,11.231-5.293,16.844
		c-0.127,0.424-0.115,0.789,0,1.107c-0.05,0.76,0.316,1.559,1.262,1.838c4.244,1.771,8.681,2.867,13.156,3.897
		c4.245,1.261,8.5,2.522,12.754,3.783c-6.748,7.257-13.61,14.812-17.847,23.831c-0.537,0.712-0.414,1.404,0.021,1.896
		c-0.049,0.529,0.125,1.078,0.5,1.502c0.992,1.088,2.233,1.924,3.483,2.686c1.976,1.521,3.957,3.051,5.938,4.581
		c1.416,1.366,2.908,2.687,4.658,3.601c0.338,0.174,0.693,0.24,1.049,0.221c0.349,0.106,0.723,0.078,1.089-0.096
		c0.241-0.105,0.463-0.289,0.653-0.539c6.594-7.171,13.188-14.351,19.78-21.521c3.493,4.793,6.987,9.577,10.48,14.37
		c1.442,2.646,2.985,5.322,5.323,7.285c0.114,0.086,0.23,0.174,0.354,0.231c0.453,0.729,1.349,1.146,2.32,0.528
		c3.264-2.079,6.526-4.158,9.788-6.237c2.061-1.251,4.101-2.521,6.093-3.868c0.616-0.424,0.848-1.029,0.809-1.617
		c0.231-0.453,0.231-1.011-0.163-1.578c-5.648-8.797-11.482-17.459-17.807-25.775c7.643-2.214,15.275-4.428,22.917-6.643
		c0.924-0.211,1.83-0.451,2.715-0.778c0.79-0.289,1.349-0.974,1.318-1.8c0-0.01,0-0.01,0.009-0.021
		c0.049-0.25,0.04-0.539-0.057-0.847C295.655,94.311,292.672,89.025,290.621,83.173z"/>
	<path fill="#FFFFFF" d="M399.855,100.253c-2.137-6.247-4.812-12.28-7.643-18.239c-0.124-0.25-0.288-0.443-0.49-0.576
		c-0.377-0.317-0.904-0.463-1.55-0.252c-6.506,2.119-13.022,4.227-19.539,6.344c-2.079,0.49-4.101,1.078-6.073,1.857
		c0.039-9.691,0.211-19.385,0.23-29.077c0-0.539-0.201-0.943-0.491-1.232c-0.009-0.01-0.019-0.019-0.028-0.029
		c-0.028-0.02-0.049-0.048-0.066-0.067c-0.289-0.289-0.693-0.472-1.223-0.472H342.53c-0.993,0-1.802,0.818-1.802,1.8
		c-0.037,9.442-0.576,18.883-0.701,28.326c-3.264-1.327-6.573-2.503-10.01-3.358c-2.139-0.473-4.285-0.914-6.42-1.387
		c-2.994-0.904-5.988-1.8-8.98-2.705c-0.973-0.375-1.693,0.106-2.002,0.838c-0.086,0.125-0.163,0.271-0.223,0.425
		c-1.039,2.819-2.348,5.524-3.396,8.345c-0.087,0.163-0.164,0.346-0.213,0.559c-0.067,0.192-0.086,0.365-0.097,0.539
		c-0.442,2.271-0.789,4.562-1.289,6.813c-0.26,0.838-0.521,1.675-0.78,2.513c-0.114,0.375-0.076,0.75,0.05,1.098
		c0.114,0.578,0.5,1.106,1.212,1.338c6.401,2.695,13.052,4.484,19.701,6.41c1.733,0.558,3.455,1.127,5.188,1.685
		c-5.735,7.526-11.061,14.821-15.555,23.187c-0.617,0.366-1.021,1.137-0.953,1.896c-0.326,1.193,0.616,2.156,1.656,2.232
		c4.609,4.408,10.434,7.189,15.755,10.636c0.906,0.588,1.763,0.25,2.233-0.404c0.154-0.086,0.309-0.202,0.443-0.354
		c1.463-1.744,2.655-3.657,3.781-5.631c2.715-4.072,5.43-8.145,8.143-12.215c1.289-1.771,2.552-3.57,3.717-5.419
		c3.896,4.648,7.787,9.308,11.684,13.966c0.012,0.01,0.012,0.01,0.021,0.021c2.262,2.954,4.582,5.86,7.15,8.556
		c0.664,0.79,1.53,0.723,2.156,0.26c0.143-0.076,0.278-0.162,0.404-0.26c0.386-0.326,0.769-0.645,1.154-0.962
		c4.446-3.552,9.238-6.535,13.043-10.828c0.258-0.222,0.412-0.463,0.508-0.713c0.184-0.433,0.164-0.953-0.23-1.481l-0.009-0.01
		c-0.038-0.058-0.087-0.125-0.136-0.184c-1.731-2.311-3.455-4.62-5.188-6.939c-3.331-5.217-7.064-10.01-10.936-14.793
		c4.89-1.435,9.646-3.156,14.419-4.977c4.39-1.676,8.999-2.426,12.994-5.033c0.049-0.039,0.086-0.077,0.135-0.105
		C399.827,101.852,400.23,101.168,399.855,100.253z"/>
</g>
<g id="Layer_2" opacity="0.6">
</g>
</svg>
