<?xml version="1.0" encoding="utf-8"?>
<!-- Generator: Adobe Illustrator 16.0.0, SVG Export Plug-In . SVG Version: 6.00 Build 0)  -->
<!DOCTYPE svg PUBLIC "-//W3C//DTD SVG 1.1//EN" "http://www.w3.org/Graphics/SVG/1.1/DTD/svg11.dtd">
<svg version="1.1" id="Layer_1" xmlns="http://www.w3.org/2000/svg" xmlns:xlink="http://www.w3.org/1999/xlink" x="0px" y="0px"
	 width="69.279px" height="92.521px" viewBox="0 0 69.279 92.521" enable-background="new 0 0 69.279 92.521" xml:space="preserve">
<path fill="#1EA292" d="M20.031,56.339c0.683,1.577,1.799,3.008,2.864,4.25C21.83,59.347,20.713,57.917,20.031,56.339"/>
<path fill="#48132D" d="M26.227,1.373C17.386,2.45,14.54,7.004,14.54,7.004c-1.076,1.273-1.921,2.557-2.415,3.618
	c-1.976,4.237-1.001,9.815-1.044,15.035l-0.003,0.177c-0.012,0.857-0.051,1.707-0.138,2.538c3.101,3.902,5.121,8.882,9.469,11.538
	c1.144-0.962,1.116,0.493,3.254,0.591c1.357-3.321-3.529-6.665-4.732-9.17c-4.8-9.989,0.728-21.498,8.282-24.852
	c2.972,2.354,4.856,5.792,7.69,8.283c2.703-0.847,6.059-1.042,9.764-0.888c3.146,7.673-0.461,17.803-5.03,21.597
	c0.211,1.51-1.717,4.579,0.593,3.845c2.16-0.274,3.721,1.177,5.326-0.887c0.405,1.271,0.965,2.387,2.07,2.959
	c3.425-5.154,6.849-10.309,7.396-18.343c0-0.985,0-1.972,0-2.958C56.085,5.857,39.06-3.373,26.764,1.164
	C26.584,1.229,26.406,1.299,26.227,1.373"/>
<path fill="#F8B018" d="M19.831,86.74c-0.008-0.717-0.012-1.436-0.008-2.152"/>
<path fill="#F8B018" d="M58.199,90.293c-0.619,0.037-10.391,2.675-10.828,1.801c-6.168-12.309-0.367-0.259-2.408-14.316
	c-0.818-4.362-2.64-8.225-4.312-12.275c0.059-0.048,0.11-0.103,0.17-0.15c-0.241-4.729-0.599-11.198,3.256-13.312
	c-1.067-2.114-5.204-4.231-3.552-7.101c4.057-0.184,6.436,2.7,9.764,4.438c0.859,0.449,1.743,0.822,2.609,1.172
	c0.158,0.063,0.317,0.127,0.476,0.19c1.473,0.588,2.878,1.134,4.017,1.892c2.994,1.998,9.348,4.416,11.27,7.959
	c0,0,2.166,25.771-1.584,28.237C63.325,91.293,58.199,90.293,58.199,90.293z"/>
<path fill="#D19A6F" d="M40.525,44.94c-0.445-1.397-1.041-3.991-0.296-5.622c-2.31,0.734-0.382-2.335-0.593-3.845
	c4.569-3.794,8.177-13.924,5.03-21.597c-3.705-0.154-7.061,0.041-9.764,0.888c-2.834-2.491-4.72-5.93-7.69-8.283
	C19.657,9.833,14.13,21.342,18.93,31.332c1.203,2.505,6.091,5.849,4.732,9.17c-0.16,1.911,0.343,4.484-0.296,5.916
	c-0.138,1.165-0.263,0.868-0.138,1.165c-0.688,2.594-3.067,1.574-3.708,4.458c-0.108,0.491-0.154,0.973-0.146,1.447
	c0.003,0.207,0.016,0.412,0.039,0.615c0.086,0.772,0.308,1.521,0.618,2.236c0.683,1.577,1.799,3.008,2.864,4.25
	c0.367,0.427,0.728,0.832,1.062,1.212v0.001c-0.188,0.607-0.287,1.17-0.317,1.702c-0.274,4.974,5.739,7.021,5.938,12.498
	c0.65,0.055,1.259,0.065,1.841,0.051c-0.031,0.021-0.037,0.033,0.055,0l4.353-0.148c0.429-1.057,0.763-2.662,1.143-3.766
	c0.029-0.08,0.057-0.162,0.085-0.243c0.008-0.021,0.015-0.041,0.021-0.062c0.853-2.445,1.791-4.806,3.566-6.326
	c0.003-0.003,0.005-0.005,0.007-0.007c0.059-0.048,0.11-0.103,0.17-0.15c-0.24-4.728-0.598-11.198,3.257-13.311
	C43.009,49.926,38.872,47.809,40.525,44.94z M43.188,19.792c-1.7-0.094-5.582-2.004-7.396,0.296
	c-0.041-0.551-0.194-0.988-0.592-1.183C36.266,16.516,43.098,16.816,43.188,19.792z M29.875,20.384
	c2.576-0.181,1.598,3.046,1.184,4.438c-0.042,1.347,2.217,1.557,1.479,2.661c-0.491,0.495-1.737,0.236-2.663,0.297
	C28.769,25.674,29.963,23.15,29.875,20.384z M20.704,18.313c0.924-2.142,9.565-2.548,7.987,1.185
	c-2.22-1.974-5.192-0.877-7.101,0.591C21.329,19.464,20.691,19.214,20.704,18.313z M23.958,24.823c0-0.986,0-1.973,0-2.96
	c-0.646-0.053-0.941,0.242-0.888,0.889c-0.936-0.058-0.688-2.186-0.297-2.663c0.197,0,0.396,0,0.593,0
	c0.413-0.489,2.84-0.489,3.254,0c0.773,0.31,1.318,0.851,1.479,1.774c-1.354,0.323-1.272,2.079-2.071,2.96
	C25.339,24.823,24.648,24.823,23.958,24.823z M33.425,33.401c-0.802,0.492-3.637,0.492-4.438,0
	c-0.748-0.531-2.124-0.438-1.773-2.069c0.689,0,1.38,0,2.071,0c0.897,0.185,2.548-0.379,2.958,0.295
	c1.292,0.01,1.746-0.817,2.958-0.889C35.567,32.584,34.25,32.748,33.425,33.401z M37.863,24.823c0-0.986,0-1.973,0-2.96
	c-1.641-0.576-1.797,1.311-2.662,0.593c0.243-0.836-0.416-0.768-0.297-1.479c0.725-0.263,1.283-0.689,2.367-0.592
	c0.414-0.49,2.84-0.49,3.254,0c1.04,0.341,1.878,0.884,1.775,2.367C40.038,22.252,40.65,25.123,37.863,24.823z"/>
<path fill="#48132D" d="M32.242,31.626c-0.41-0.674-2.061-0.11-2.958-0.295c-0.691,0-1.382,0-2.071,0
	c-0.351,1.631,1.025,1.538,1.773,2.069c0.803,0.492,3.638,0.492,4.438,0c0.825-0.653,2.142-0.816,1.774-2.663
	C33.989,30.81,33.534,31.636,32.242,31.626"/>
<path fill="#48132D" d="M28.1,21.863c-0.16-0.924-0.705-1.465-1.479-1.774c-0.414-0.489-2.84-0.489-3.254,0
	c-0.197,0-0.396,0-0.593,0c-0.392,0.478-0.639,2.605,0.297,2.663c-0.055-0.646,0.241-0.941,0.888-0.889c0,0.987,0,1.974,0,2.96
	c0.688,0,1.381,0,2.069,0C26.827,23.942,26.747,22.187,28.1,21.863"/>
<path fill="#48132D" d="M29.875,27.781c0.926-0.061,2.172,0.198,2.663-0.297c0.736-1.104-1.521-1.314-1.479-2.661
	c0.414-1.393,1.394-4.619-1.184-4.438C29.963,23.15,28.769,25.674,29.875,27.781"/>
<path fill="#48132D" d="M28.692,19.498c1.578-3.732-7.063-3.326-7.987-1.185c-0.014,0.901,0.625,1.151,0.888,1.775
	C23.499,18.621,26.472,17.524,28.692,19.498"/>
<path fill="#48132D" d="M35.792,20.088c1.813-2.3,5.695-0.39,7.396-0.296c-0.09-2.977-6.922-3.277-7.987-0.887
	C35.597,19.101,35.75,19.538,35.792,20.088"/>
<path fill="#48132D" d="M42.3,22.751c0.103-1.483-0.735-2.026-1.775-2.367c-0.414-0.49-2.84-0.49-3.254,0
	c-1.084-0.098-1.644,0.329-2.367,0.592c-0.119,0.712,0.54,0.644,0.297,1.479c0.865,0.718,1.021-1.169,2.662-0.593
	c0,0.987,0,1.974,0,2.96C40.65,25.123,40.038,22.252,42.3,22.751"/>
<path fill="#48132D" d="M26.227,1.373"/>
<path fill="#DF5D1F" d="M44.96,77.774c-0.82-4.359-2.641-8.22-4.311-12.27c0,0,0,0-0.01,0.01c-1.77,1.52-2.71,3.88-3.56,6.32
	c-0.011,0.02-0.021,0.04-0.021,0.06c-0.03,0.08-0.06,0.17-0.09,0.25c-0.38,1.101-0.75,2.21-1.18,3.271
	c-1.11,0.27-2.26,0.5-3.541,0.6c-0.6,0.02-2,0.04-2.67-0.01c-0.2-5.48-6.22-7.53-5.94-12.5c-0.54,1.149-1.28,2.24-1.46,3.33
	c-1.29,9.54-2.32,8.18-2.36,17.75c0,0.72,0.091,3.316,0.101,4.037l9.949,1.263c5.72,0,6.572,2.953,12.875,2.609
	c4.66-0.254,2.212,0.269,6.012-0.222C46.51,79.139,47,91.834,44.96,77.774z"/>
<path fill="#F8B018" d="M20.031,56.339c-0.312-0.716-0.532-1.464-0.618-2.236c-0.023-0.203-0.036-0.408-0.039-0.615
	c-0.008-0.476,0.038-0.956,0.146-1.447c0.642-2.884,2.979-1.558,3.619-4.073c0.078-0.422,0.264-0.869,0.227-1.549
	c-3.775,1.317-7.785,4.176-12.426,6.509c-3.391,1.703-7.52,3.181-10.146,6.077c0,0-3.078,8.76,2.878,26.129
	c0.223,0.651,1.963,0.66,3.067,0.827c3.199,0.483,7.968,1.354,8.878,1.583s4.303,1.078,4.303,1.078
	c0.037-9.578,0.968-12.244,2.262-21.791c0.181-1.086,0.915-2.172,1.458-3.326c0.03-0.532,0.129-1.095,0.317-1.702
	c-0.336-0.381-0.695-0.786-1.062-1.213C21.83,59.347,20.713,57.916,20.031,56.339z"/>
</svg>
