<?xml version="1.0" encoding="utf-8"?>
<!-- Generator: Adobe Illustrator 16.0.0, SVG Export Plug-In . SVG Version: 6.00 Build 0)  -->
<!DOCTYPE svg PUBLIC "-//W3C//DTD SVG 1.1//EN" "http://www.w3.org/Graphics/SVG/1.1/DTD/svg11.dtd">
<svg version="1.1" id="Layer_1" xmlns="http://www.w3.org/2000/svg" xmlns:xlink="http://www.w3.org/1999/xlink" x="0px" y="0px"
	 width="69.28px" height="121.528px" viewBox="0 0 69.28 121.528" enable-background="new 0 0 69.28 121.528" xml:space="preserve">
<path fill="#1EA292" d="M20.031,56.339c0.683,1.577,1.799,3.008,2.865,4.25C21.83,59.347,20.713,57.917,20.031,56.339"/>
<path fill="#48132D" d="M26.227,1.373C17.386,2.45,14.54,7.004,14.54,7.004c-1.076,1.274-1.921,2.557-2.415,3.618
	c-1.975,4.238-1.001,9.816-1.044,15.035l-0.003,0.177c-0.011,0.858-0.05,1.707-0.137,2.538c3.1,3.903,5.121,8.882,9.468,11.538
	c1.144-0.962,1.117,0.494,3.254,0.591c1.358-3.321-3.529-6.665-4.732-9.17c-4.8-9.989,0.727-21.498,8.282-24.851
	c2.972,2.353,4.857,5.792,7.691,8.283c2.703-0.847,6.058-1.042,9.763-0.888c3.146,7.673-0.461,17.803-5.03,21.597
	c0.211,1.51-1.717,4.579,0.593,3.845c2.16-0.275,3.72,1.176,5.326-0.887c0.405,1.27,0.965,2.387,2.07,2.959
	c3.425-5.154,6.849-10.309,7.396-18.343c0-0.985,0-1.972,0-2.958C56.085,5.857,39.06-3.373,26.764,1.164
	C26.584,1.229,26.406,1.299,26.227,1.373"/>
<path fill="#F8B018" d="M19.823,95.588c0.038-9.578,1.066-19.211,2.36-28.758c0.181-1.086,0.915-2.172,1.458-3.326
	c0.03-0.532,0.129-1.095,0.317-1.702c-0.336-0.381-0.695-0.786-1.062-1.213c-1.066-1.242-2.183-2.673-2.865-4.25
	c-0.311-0.716-0.532-1.464-0.618-2.236c-0.023-0.203-0.036-0.408-0.039-0.615c-0.008-0.476,0.038-0.957,0.147-1.448
	c0.641-2.884,4.994-3.29,5.029-5.916c-0.618-0.126-0.783,0.202-1.184,0.294c-3.775,1.318-7.785,4.176-12.425,6.509
	C7.55,54.63,3.421,56.108,0.795,59.004c0,0-3.078,37.76,2.878,55.129c0.223,0.651,1.963,0.66,3.067,0.827
	c3.2,0.484,5.896,0.708,8.878,1.583c1.756,0.516,3.58,0.777,5.294,1.4c-0.742-4.965-1.021-15.18-1.081-20.203
	C19.823,97.024,19.82,96.305,19.823,95.588"/>
<path fill="#DF5D1F" d="M44.962,77.778c-0.818-4.363-2.64-8.225-4.312-12.276c-0.002,0.002-0.004,0.004-0.007,0.007
	c-1.776,1.521-2.714,3.881-3.567,6.326c-0.007,0.021-0.014,0.041-0.021,0.062c-0.028,0.081-0.056,0.163-0.085,0.243
	c-0.38,1.104-0.75,2.216-1.179,3.271c-1.11,0.271-2.257,0.506-3.542,0.604c0.603,1.07,0.831,3.666,1.063,4.783
	c0.219,1.043,0.564,2.105,0.864,3.181c0.625-0.007,1.265-0.001,1.91,0.011c1.725,2.1,3.868,8.116,0,9.172
	c3,1.635,4.831,4.439,4.438,9.467c-1.887,0.773-3.178,2.146-6.212,1.775c-1.763-2.018-0.297-4.875-0.591-7.1
	c-0.583-4.396-3.824-8.117-3.848-12.723c0.739-0.277,1.603-0.432,2.535-0.516c0.518-1.787-2.862-6.43-0.935-8.012
	c-0.598,0.018-1.226,0.006-1.896-0.051c-0.199-5.477-6.214-7.524-5.938-12.498c-0.543,1.154-1.277,2.24-1.458,3.326
	c-1.294,9.547-2.322,19.18-2.36,28.758c-0.003,0.717,0,1.436,0.009,2.152c0.061,5.023,0.339,15.238,1.081,20.203
	c3.206,1.161,6.036,0.937,8.962,0.937c5.712,0,10.981,2.8,17.283,2.641c4.666-0.118,5.801-1.029,9.604-1.521
	C50.214,107.888,47.003,91.834,44.962,77.778"/>
<path fill="#F8B018" d="M58.199,119.293c-0.619,0.037-1.641,1.312-2.079,0.438c-6.168-12.309-9.116-27.896-11.157-41.953
	c-0.818-4.363-2.64-8.225-4.312-12.276c0.058-0.048,0.11-0.102,0.17-0.15c-0.242-4.729-0.599-11.198,3.255-13.312
	c-1.067-2.114-5.204-4.231-3.551-7.1c4.056-0.184,6.435,2.7,9.763,4.437c0.86,0.449,1.743,0.822,2.61,1.172
	c0.158,0.064,0.317,0.127,0.475,0.19c1.473,0.588,2.878,1.134,4.017,1.892c2.994,1.998,9.348,4.416,11.269,7.959
	c0,0,2.166,54.771-1.584,57.237S58.199,119.293,58.199,119.293z"/>
<path fill="#D19A6F" d="M37.863,24.822c0-0.986,0-1.972,0-2.959c-1.641-0.577-1.797,1.31-2.663,0.592
	c0.244-0.836-0.416-0.767-0.296-1.479c0.724-0.263,1.283-0.69,2.367-0.592c0.414-0.49,2.84-0.49,3.254,0
	c1.04,0.341,1.878,0.884,1.775,2.367C40.038,22.252,40.65,25.123,37.863,24.822 M33.425,33.401c-0.802,0.492-3.637,0.492-4.438,0
	c-0.748-0.532-2.124-0.439-1.774-2.07c0.69,0,1.38,0,2.071,0c0.898,0.185,2.548-0.379,2.958,0.295
	c1.292,0.01,1.747-0.817,2.958-0.888C35.567,32.584,34.25,32.748,33.425,33.401z M23.958,24.822c0-0.986,0-1.972,0-2.959
	c-0.646-0.053-0.941,0.242-0.887,0.888c-0.936-0.057-0.688-2.185-0.297-2.663c0.197,0,0.395,0,0.592,0
	c0.414-0.489,2.84-0.489,3.254,0c0.774,0.31,1.319,0.851,1.479,1.775c-1.354,0.323-1.273,2.079-2.071,2.959
	C25.339,24.822,24.648,24.822,23.958,24.822z M20.704,18.313c0.924-2.142,9.566-2.548,7.988,1.184
	c-2.22-1.973-5.193-0.877-7.101,0.591C21.329,19.464,20.691,19.214,20.704,18.313z M29.875,20.384
	c2.576-0.181,1.598,3.046,1.184,4.438c-0.042,1.347,2.217,1.557,1.479,2.662c-0.491,0.495-1.737,0.236-2.663,0.296
	C28.769,25.674,29.963,23.15,29.875,20.384z M43.188,19.792c-1.7-0.094-5.582-2.004-7.396,0.296
	c-0.041-0.551-0.194-0.988-0.592-1.183C36.266,16.516,43.098,16.816,43.188,19.792z M44.076,52.04
	c-1.067-2.114-5.204-4.231-3.551-7.1c-0.446-1.398-1.041-3.992-0.296-5.622c-2.31,0.734-0.382-2.335-0.593-3.845
	c4.569-3.794,8.177-13.924,5.03-21.597c-3.705-0.154-7.06,0.041-9.763,0.888c-2.834-2.491-4.72-5.93-7.691-8.283
	C19.657,9.833,14.13,21.342,18.93,31.332c1.203,2.505,6.091,5.849,4.732,9.17c-0.16,1.911,0.343,4.485-0.296,5.916
	c0.4-0.092,0.565-0.42,1.184-0.294c-0.035,2.626-4.389,3.032-5.029,5.916c-0.109,0.491-0.155,0.973-0.147,1.448
	c0.003,0.207,0.016,0.412,0.039,0.615c0.086,0.772,0.308,1.521,0.618,2.236c0.683,1.577,1.799,3.008,2.865,4.25
	c0.367,0.427,0.727,0.832,1.062,1.212v0.001c-0.188,0.607-0.287,1.17-0.317,1.702c-0.275,4.974,5.739,7.021,5.938,12.498
	c0.67,0.057,1.298,0.068,1.896,0.051c0.157-0.129,0.346-0.238,0.577-0.323c0.071,0.075,0.137,0.175,0.197,0.284
	c1.285-0.098,2.432-0.332,3.542-0.604c0.429-1.056,0.799-2.168,1.179-3.271c0.029-0.08,0.057-0.162,0.085-0.243
	c0.008-0.021,0.015-0.041,0.021-0.062c0.853-2.445,1.791-4.805,3.567-6.326c0.003-0.003,0.005-0.005,0.007-0.007
	c0.058-0.048,0.11-0.102,0.17-0.15C40.579,60.623,40.222,54.153,44.076,52.04z"/>
<path fill="#48132D" d="M32.242,31.626c-0.41-0.674-2.06-0.11-2.958-0.295c-0.691,0-1.381,0-2.071,0
	c-0.35,1.631,1.026,1.538,1.774,2.07c0.802,0.492,3.637,0.492,4.438,0c0.825-0.654,2.142-0.817,1.774-2.663
	C33.989,30.81,33.534,31.636,32.242,31.626"/>
<path fill="#48132D" d="M28.1,21.863c-0.16-0.924-0.705-1.465-1.479-1.775c-0.414-0.489-2.84-0.489-3.254,0
	c-0.197,0-0.395,0-0.592,0c-0.392,0.478-0.639,2.606,0.297,2.663c-0.055-0.646,0.241-0.941,0.887-0.888c0,0.987,0,1.973,0,2.959
	c0.689,0,1.381,0,2.07,0C26.827,23.942,26.747,22.187,28.1,21.863"/>
<path fill="#48132D" d="M29.875,27.78c0.926-0.06,2.172,0.199,2.663-0.296c0.737-1.105-1.521-1.315-1.479-2.662
	c0.414-1.392,1.393-4.619-1.184-4.438C29.963,23.15,28.769,25.674,29.875,27.78"/>
<path fill="#48132D" d="M28.692,19.498c1.578-3.732-7.064-3.326-7.988-1.184c-0.013,0.901,0.625,1.151,0.888,1.775
	C23.499,18.621,26.472,17.524,28.692,19.498"/>
<path fill="#48132D" d="M35.792,20.088c1.814-2.3,5.696-0.39,7.396-0.296c-0.09-2.976-6.922-3.277-7.988-0.887
	C35.597,19.101,35.75,19.538,35.792,20.088"/>
<path fill="#48132D" d="M42.3,22.751c0.103-1.483-0.735-2.026-1.775-2.367c-0.414-0.49-2.84-0.49-3.254,0
	c-1.084-0.098-1.644,0.329-2.367,0.592c-0.12,0.712,0.54,0.643,0.296,1.479c0.866,0.718,1.022-1.169,2.663-0.592
	c0,0.987,0,1.973,0,2.959C40.65,25.123,40.038,22.252,42.3,22.751"/>
<path fill="#48132D" d="M31.475,76.053c-1.928,1.582,1.452,6.225,0.935,8.012c-0.933,0.084-1.796,0.238-2.535,0.516
	c0.023,4.605,3.265,8.326,3.848,12.723c0.294,2.225-1.172,5.082,0.591,7.1c3.034,0.371,4.325-1.002,6.212-1.775
	c0.394-5.027-1.438-7.832-4.438-9.467c3.868-1.056,1.725-7.072,0-9.172c-0.646-0.012-1.285-0.018-1.91-0.011
	c-0.3-1.075-0.646-2.138-0.864-3.181c-0.232-1.117-0.461-3.713-1.063-4.783c-0.061-0.109-0.126-0.209-0.197-0.284
	C31.821,75.815,31.632,75.924,31.475,76.053"/>
<path fill="#48132D" d="M26.227,1.373"/>
</svg>
