<?xml version="1.0" encoding="utf-8"?>
<!-- Generator: Adobe Illustrator 16.0.0, SVG Export Plug-In . SVG Version: 6.00 Build 0)  -->
<!DOCTYPE svg PUBLIC "-//W3C//DTD SVG 1.1//EN" "http://www.w3.org/Graphics/SVG/1.1/DTD/svg11.dtd">
<svg version="1.1" id="Layer_1" xmlns="http://www.w3.org/2000/svg" xmlns:xlink="http://www.w3.org/1999/xlink" x="0px" y="0px"
	 width="80px" height="100px" viewBox="-5.361 -3.74 80 100" enable-background="new -5.361 -3.74 80 100" xml:space="preserve">
<g>
	<path fill="#1EA292" d="M20.03,52.599c0.683,1.577,1.799,3.009,2.864,4.25C21.828,55.608,20.711,54.177,20.03,52.599"/>
	<path fill="#48132D" d="M26.226-2.366c-8.842,1.077-11.688,5.631-11.688,5.631c-1.076,1.273-1.921,2.558-2.415,3.618
		c-1.976,4.237-1.001,9.815-1.044,15.035l-0.003,0.177c-0.012,0.857-0.051,1.707-0.138,2.538c3.101,3.902,5.121,8.882,9.469,11.538
		c1.145-0.962,1.116,0.493,3.254,0.591c1.357-3.32-3.529-6.665-4.731-9.17c-4.801-9.989,0.728-21.498,8.281-24.852
		c2.973,2.354,4.856,5.792,7.69,8.283c2.703-0.848,6.058-1.043,9.763-0.889c3.146,7.673-0.461,17.803-5.029,21.598
		c0.211,1.51-1.717,4.578,0.594,3.845c2.16-0.274,3.721,1.177,5.326-0.887c0.404,1.271,0.965,2.387,2.068,2.959
		c3.426-5.154,6.85-10.31,7.396-18.344c0-0.984,0-1.972,0-2.958C56.083,2.118,39.059-7.113,26.763-2.575
		C26.582-2.51,26.405-2.441,26.226-2.366"/>
	<path fill="#F8B018" d="M19.829,90.479c-0.008-0.717-0.012-1.436-0.008-2.152"/>
	<path fill="#F8B018" d="M58.198,94.032c-0.619,0.037-10.391,2.675-10.828,1.801c-6.168-12.309-0.367-7.737-2.408-21.794
		c-0.818-4.362-2.641-8.226-4.312-12.275c0.059-0.048,0.109-0.103,0.17-0.149c-0.24-4.729-0.598-11.198,3.256-13.312
		c-1.066-2.114-5.203-4.23-3.551-7.101c4.057-0.185,6.436,2.7,9.764,4.438c0.859,0.449,1.742,0.822,2.609,1.172
		c0.158,0.063,0.316,0.127,0.475,0.19c1.475,0.588,2.879,1.134,4.018,1.892c2.994,1.998,9.348,4.416,11.27,7.959
		c0,0,2.166,33.25-1.584,35.716C63.323,95.032,58.198,94.032,58.198,94.032z"/>
	<path fill="#D19A6F" d="M40.524,41.201c-0.445-1.397-1.041-3.991-0.297-5.622c-2.311,0.733-0.381-2.335-0.594-3.845
		c4.57-3.794,8.178-13.925,5.031-21.598c-3.705-0.153-7.061,0.041-9.764,0.889c-2.834-2.491-4.72-5.931-7.69-8.283
		c-7.555,3.352-13.082,14.86-8.281,24.851c1.202,2.505,6.091,5.85,4.731,9.17c-0.16,1.911,0.343,4.484-0.296,5.916
		c-0.138,1.165-0.263,0.868-0.138,1.165c-0.688,2.594-3.067,1.574-3.708,4.458c-0.108,0.491-0.154,0.974-0.146,1.447
		c0.003,0.207,0.017,0.412,0.039,0.615c0.086,0.771,0.309,1.521,0.618,2.235c0.683,1.577,1.799,3.009,2.864,4.25
		c0.367,0.428,0.728,0.832,1.062,1.212v0.001c-0.188,0.607-0.287,1.171-0.316,1.702c-0.274,4.975,5.738,7.021,5.938,12.498
		c0.65,0.056,1.259,0.065,1.841,0.051c-0.03,0.021-0.037,0.033,0.056,0l4.352-0.147c0.43-1.057,0.764-2.662,1.145-3.766
		c0.027-0.08,0.057-0.162,0.084-0.243c0.008-0.021,0.016-0.041,0.021-0.062c0.854-2.444,1.791-4.806,3.566-6.326
		c0.002-0.003,0.004-0.005,0.006-0.007c0.059-0.048,0.109-0.103,0.17-0.149c-0.24-4.729-0.598-11.198,3.258-13.312
		C43.007,46.186,38.87,44.07,40.524,41.201z M43.186,16.052c-1.699-0.094-5.582-2.004-7.396,0.296
		c-0.041-0.551-0.193-0.987-0.592-1.183C36.264,12.777,43.096,13.077,43.186,16.052z M29.873,16.644
		c2.576-0.181,1.599,3.047,1.185,4.438c-0.042,1.347,2.217,1.557,1.479,2.661c-0.491,0.495-1.737,0.235-2.663,0.297
		C28.768,21.934,29.961,19.411,29.873,16.644z M20.702,14.574c0.924-2.143,9.565-2.548,7.987,1.185
		c-2.22-1.974-5.192-0.877-7.102,0.591C21.327,15.724,20.69,15.474,20.702,14.574z M23.956,21.084c0-0.986,0-1.973,0-2.96
		c-0.646-0.053-0.94,0.242-0.888,0.889c-0.937-0.058-0.688-2.186-0.297-2.663c0.197,0,0.396,0,0.593,0
		c0.413-0.488,2.84-0.488,3.254,0c0.773,0.311,1.318,0.852,1.479,1.774c-1.354,0.323-1.272,2.079-2.071,2.96
		C25.337,21.084,24.647,21.084,23.956,21.084z M33.423,29.662c-0.802,0.492-3.637,0.492-4.438,0
		c-0.748-0.531-2.124-0.438-1.773-2.069c0.689,0,1.38,0,2.071,0c0.897,0.186,2.548-0.379,2.958,0.295
		c1.292,0.011,1.746-0.816,2.958-0.889C35.565,28.844,34.248,29.009,33.423,29.662z M37.862,21.084c0-0.986,0-1.973,0-2.96
		c-1.641-0.576-1.797,1.311-2.662,0.593c0.242-0.836-0.417-0.768-0.297-1.479c0.725-0.264,1.284-0.689,2.368-0.593
		c0.414-0.489,2.84-0.489,3.254,0c1.039,0.342,1.877,0.885,1.773,2.367C40.036,18.512,40.649,21.384,37.862,21.084z"/>
	<path fill="#48132D" d="M32.24,27.886c-0.41-0.674-2.061-0.109-2.958-0.295c-0.691,0-1.382,0-2.071,0
		c-0.351,1.631,1.025,1.538,1.773,2.069c0.803,0.492,3.638,0.492,4.438,0c0.825-0.653,2.143-0.816,1.774-2.663
		C33.988,27.071,33.532,27.896,32.24,27.886"/>
	<path fill="#48132D" d="M28.099,18.124c-0.16-0.924-0.705-1.465-1.479-1.774c-0.414-0.488-2.84-0.488-3.254,0
		c-0.197,0-0.396,0-0.593,0c-0.393,0.479-0.64,2.605,0.297,2.663c-0.055-0.646,0.241-0.94,0.888-0.889c0,0.987,0,1.974,0,2.96
		c0.688,0,1.381,0,2.069,0C26.825,20.203,26.745,18.448,28.099,18.124"/>
	<path fill="#48132D" d="M29.873,24.042c0.926-0.062,2.172,0.198,2.663-0.297c0.736-1.104-1.521-1.314-1.479-2.661
		c0.414-1.393,1.394-4.619-1.185-4.438C29.961,19.411,28.768,21.934,29.873,24.042"/>
	<path fill="#48132D" d="M28.691,15.759c1.578-3.731-7.063-3.326-7.987-1.185c-0.014,0.9,0.625,1.15,0.888,1.774
		C23.497,14.882,26.471,13.785,28.691,15.759"/>
	<path fill="#48132D" d="M35.79,16.348c1.814-2.3,5.695-0.39,7.396-0.296c-0.09-2.977-6.922-3.276-7.986-0.887
		C35.596,15.362,35.749,15.799,35.79,16.348"/>
	<path fill="#48132D" d="M42.298,19.011c0.104-1.482-0.734-2.025-1.773-2.367c-0.414-0.489-2.84-0.489-3.254,0
		c-1.084-0.098-1.645,0.329-2.368,0.593c-0.119,0.712,0.54,0.644,0.297,1.479c0.865,0.718,1.021-1.169,2.662-0.593
		c0,0.987,0,1.974,0,2.96C40.649,21.384,40.036,18.512,42.298,19.011"/>
	<path fill="#48132D" d="M26.226-2.366"/>
	<path fill="#DF5D1F" d="M44.958,74.035c-0.818-4.359-2.641-8.22-4.311-12.271c0,0,0,0-0.01,0.011
		c-1.77,1.52-2.709,3.88-3.561,6.319c-0.01,0.021-0.02,0.04-0.02,0.061c-0.031,0.08-0.061,0.17-0.092,0.25
		c-0.379,1.101-0.75,2.21-1.18,3.271c-1.109,0.271-2.259,0.5-3.541,0.601c-0.6,0.02-2,0.04-2.67-0.011
		c-0.2-5.479-6.22-7.529-5.939-12.5c-0.54,1.149-1.28,2.24-1.461,3.33c-1.289,9.54-2.319,15.659-2.359,25.229
		c0,0.721,0.091,3.316,0.101,4.037l9.949,1.263c5.719,0,6.573,2.953,12.875,2.609c4.66-0.254,2.211,0.27,6.012-0.222
		C46.509,82.879,46.999,88.094,44.958,74.035z"/>
	<path fill="#F8B018" d="M20.03,52.599c-0.312-0.716-0.532-1.464-0.618-2.235c-0.022-0.203-0.036-0.408-0.039-0.615
		c-0.008-0.476,0.038-0.956,0.146-1.447c0.642-2.884,2.979-1.558,3.619-4.073c0.077-0.422,0.264-0.868,0.227-1.549
		c-3.775,1.317-7.785,4.176-12.426,6.509c-3.392,1.703-7.521,3.182-10.146,6.077c0,0-3.078,16.239,2.878,33.607
		c0.224,0.651,1.963,0.66,3.067,0.827c3.199,0.483,7.968,1.354,8.878,1.583c0.91,0.229,4.303,1.078,4.303,1.078
		c0.037-9.578,0.969-19.723,2.263-29.27c0.181-1.086,0.915-2.172,1.458-3.326c0.029-0.531,0.129-1.095,0.316-1.702
		c-0.336-0.381-0.694-0.785-1.062-1.213C21.828,55.608,20.711,54.177,20.03,52.599z"/>
</g>
</svg>
