<?xml version="1.0" encoding="utf-8"?>
<!-- Generator: Adobe Illustrator 16.0.0, SVG Export Plug-In . SVG Version: 6.00 Build 0)  -->
<!DOCTYPE svg PUBLIC "-//W3C//DTD SVG 1.1//EN" "http://www.w3.org/Graphics/SVG/1.1/DTD/svg11.dtd">
<svg version="1.1" id="Layer_1" xmlns="http://www.w3.org/2000/svg" xmlns:xlink="http://www.w3.org/1999/xlink" x="0px" y="0px"
	 width="400px" height="150px" viewBox="0 0 400 150" enable-background="new 0 0 400 150" xml:space="preserve">
<path fill="#DF5D1E" d="M184.7,72.526c-2.309-10.917-2.208-28.901-16.406-30.47c-1.539-0.166-3.139,0.06-4.727,0.414
	c-2.29-10.204-5.109-20.296-13.582-27.09c-7.979-6.389-18.514-7.882-28.303-6.237c-9.792,1.631-18.609,7.679-23.21,16.442
	c-5.545,10.557-3.299,20.495-1.661,31.408c-2.565,0.564-5.245,1.474-6.516,3.235c-2.478,3.42-1.097,9.385-0.631,13.196
	c1.607,13.08,4.886,25.933,7.683,38.789c1.272,4.645,1.069,11.123,5.26,14.398c3.317,2.615,7.314,3.293,11.459,2.754
	c13.894-1.766,27.93-5.518,41.625-8.48c6.725-1.441,13.461-2.621,20.198-3.934c5.354-1.031,10.285-3.414,13.058-8.254
	c2.229-3.893,1.571-8.875,0.819-13.062C188.377,87.848,185.704,80.41,184.7,72.526z M147.297,88.379
	c-0.811,1.684-2.21,3.025-3.863,3.926c0.819,3.66,1.598,7.322,2.522,10.953c1.566,6.166-8.067,8.207-9.628,2.064
	c-0.897-3.525-1.658-7.078-2.449-10.627c-0.929-0.242-1.834-0.621-2.685-1.211c-2.593-1.803-4.419-4.451-4.86-7.621
	c-0.943-6.768,5.531-11.205,11.684-11.4C145.1,74.239,150.391,81.949,147.297,88.379z M142.967,46.987
	c-8.431,1.718-16.89,3.369-25.215,5.576c-1.457-8.837-4.413-17.324,5.725-22.312c6.497-3.188,12.241-0.623,16.058,4.936
	C141.844,38.544,142.226,42.913,142.967,46.987z"/>
<path fill="#DF5D1E" d="M388.507,90.746c0.686-0.459,0.73-2.109,0.939-3.172c2.23-11.438,4.732-18.529,1.32-29.932
	c-2.91-9.727-11.752-17.626-21.201-20.49c-11.443-3.481-23.395-1.161-32.826,6.008c-9.189,6.994-12.385,18.732-14.646,29.583
	c-4.375-0.865-8.756-1.699-13.135-2.535c-8.074-1.532-16.162-2.997-24.195-4.73c-5.414-1.173-11.773-3.622-17.391-2.644
	c-4.814,0.837-6.828,5.523-8.461,9.566c-3.262,8.062-3.691,14.331-5.352,22.812c-0.154,0.773-0.502,3.486-0.947,5.051
	c-2.125,7.898-5.191,18.822-4.01,27.129c1.195,8.404,20.586,11.092,31.176,12.719c9.514,1.477,18.85,3.631,28.248,5.713
	c7.65,1.703,15.811,4.072,23.705,4.174c16.875,0.199,15.803-20.043,17.955-32.15c0.082-0.49,0.062-0.928-0.002-1.342
	c1.396-7.311,2.678-14.629,4.104-21.934c0.854-4.389,1.539-8.545-0.91-12.52c-1.92-3.104-6.275-4.381-10.361-5.189
	c0.9-6.288,1.803-15.009,6.846-18.9c5.521-4.26,13.871-4.296,19.812-0.187c8.893,6.15,3.725,17.95,2.307,26.373
	c-0.539,3.203-0.129,3.281,0.322,3.557c0.562,0.209,1.525,0.293,2.129,0.412c5.191,1.025,6.045,1.312,11.223,2.336
	C386.216,90.664,387.817,91.205,388.507,90.746z M293.88,99.672c2.574-3.369,6.758-3.957,10.545-2.857
	c0.436,0.109,0.889,0.238,1.34,0.475c0.328,0.127,0.627,0.291,0.9,0.486c4.43,2.785,6.842,8.76,2.973,13.207
	c-1.393,1.611-3.137,2.451-4.996,2.83c0.031,0.465,0.039,0.943-0.039,1.465c-0.578,3.436-1.449,6.814-2.146,10.225
	c-0.654,3.211-3.49,4.334-6.002,3.816c-2.502-0.473-4.656-2.58-3.984-5.787c0.715-3.408,1.43-6.816,2.143-10.227
	c0.008-0.039,0.037-0.072,0.043-0.115c-0.266-0.217-0.488-0.467-0.682-0.732C291.198,108.627,290.97,103.477,293.88,99.672z"/>
<g>
	<path fill="#DF5D1E" stroke="#DF5D1E" stroke-width="0" stroke-linecap="round" stroke-linejoin="round" d="M280.426,11.436
		c-4.061-2.404-8.872-3.422-13.557-2.668c-12.756,2.057-22.486,14.902-20.161,27.587c-11.708,7.583-23.456,15.093-35.17,22.659
		c-2.423,1.562-5.277,2.872-6.509,5.647c-1.037,2.335-1.412,5.391,0.26,7.55c1.452,1.873,4.664,1.93,6.797,1.886
		c1.231-0.027,2.484,0.103,3.534-0.577l4.804-3.111c1.777,0.213,3.542,0.527,5.302,0.866c0.78,0.15,1.934,0.626,2.726,0.298
		c0.636-0.266,1.229-0.595,1.753-1.056c0.722-0.635,0.739-1.357,0.905-2.304c0.287-1.648,0.318-3.678,0.83-5.269
		c2.907,0.164,6.585,2.733,9.207,1.063c1.066-0.679,1.13-0.848,1.354-2.158c0.353-2.019,0.664-4.042,0.916-6.075
		c3.311-2.541,6.98-4.63,10.489-6.88c3.303,2.935,7.424,4.957,11.785,5.439c6.654,0.739,12.956-1.711,18.479-5.241
		c0.039-0.015,0.074-0.038,0.109-0.066c0.039-0.023,0.07-0.052,0.099-0.079c3.385-2.725,6.646-5.812,7.599-10.227
		c1.062-4.917,0.629-10.026-1.432-14.612C288.351,19.231,285.125,14.225,280.426,11.436z M281.532,23.776
		c2.467,3.805,3.534,8.117,2.992,10.223c-0.573,2.287-2.228,4.501-3.941,5.934c-2.912-4.496-11.371-17.55-14.282-22.042
		C270.278,16.107,276.793,16.462,281.532,23.776z"/>
</g>
<g>
	<path fill="#DF5D1E" stroke="#DF5D1E" stroke-width="0" stroke-linecap="round" stroke-linejoin="round" d="M24.523,139.886
		c4.709,1.758,9.837,1.856,14.673,0.474c4.343-1.239,7.21-4.696,9.708-8.254c0.024-0.03,0.052-0.062,0.071-0.102
		c0.027-0.037,0.046-0.074,0.059-0.113c3.162-5.744,5.194-12.192,4.02-18.784c-0.768-4.319-3.055-8.3-6.2-11.402
		c2.015-3.649,3.86-7.448,6.178-10.919c2.014-0.385,4.011-0.827,6.002-1.312c1.294-0.311,1.458-0.385,2.066-1.493
		c1.494-2.724-1.311-6.228-1.664-9.116c1.554-0.616,3.576-0.78,5.203-1.175c0.933-0.228,1.652-0.291,2.239-1.053
		c0.426-0.554,0.715-1.167,0.938-1.818c0.277-0.813-0.275-1.933-0.474-2.701c-0.453-1.733-0.884-3.475-1.212-5.233l2.79-4.998
		c0.61-1.092,0.397-2.333,0.345-3.564c-0.095-2.132-0.362-5.332-2.327-6.659c-2.264-1.526-5.289-0.952-7.551,0.236
		c-2.688,1.411-3.807,4.344-5.208,6.864c-6.782,12.183-13.507,24.398-20.307,36.577c-12.809-1.488-24.99,9.062-26.207,21.926
		c-0.446,4.724,0.885,9.457,3.551,13.352C14.306,135.125,19.512,138.017,24.523,139.886z M16.73,116.101
		c4.672,2.61,18.253,10.197,22.93,12.809c-1.318,1.804-3.419,3.601-5.662,4.323c-2.066,0.677-6.439-0.106-10.397-2.317
		C15.992,126.665,15.21,120.188,16.73,116.101z"/>
</g>
</svg>
