<?xml version="1.0" encoding="utf-8"?>
<!-- Generator: Adobe Illustrator 16.0.0, SVG Export Plug-In . SVG Version: 6.00 Build 0)  -->
<!DOCTYPE svg PUBLIC "-//W3C//DTD SVG 1.1//EN" "http://www.w3.org/Graphics/SVG/1.1/DTD/svg11.dtd">
<svg version="1.1" id="Layer_1" xmlns="http://www.w3.org/2000/svg" xmlns:xlink="http://www.w3.org/1999/xlink" x="0px" y="0px"
	 width="105.217px" height="70.494px" viewBox="0 0 105.217 70.494" enable-background="new 0 0 105.217 70.494"
	 xml:space="preserve">
<path opacity="0.35" fill="#494949" enable-background="new    " d="M48.466,0.727c-8.24,8.238-16.521,16.43-25.142,24.277
	c-8.36,7.611-14.37,17.262-22.61,24.973c-1.069,1-0.83,2.51,0,3.539c4.511,5.551,9.351,10.818,14,16.25c0.87,1.01,2.65,0.931,3.54,0
	c11.141-11.762,21.42-24.279,32.471-36.11c2.47,2.229,4.409,5.03,6.771,7.38c2.971,2.979,5.949,5.95,8.92,8.931
	c6.369,6.359,13.641,11.721,19.801,18.299c0.148,0.15,0.301,0.28,0.461,0.393c0.68,1.352,2.6,2.188,4.078,0.857
	c4.859-4.39,9.199-9.299,13.75-14c0.74-0.77,0.842-1.658,0.58-2.438c-0.09-0.37-0.271-0.75-0.58-1.102
	c-3.771-4.26-8.431-7.67-12.479-11.66c-5.438-5.35-10.63-10.938-16.25-16.108c-4.608-4.25-9.2-8.48-13.471-13.08
	c-3.312-3.562-6.529-7.312-10.302-10.398c-0.209-0.172-0.42-0.279-0.64-0.381C50.495-0.154,49.386-0.183,48.466,0.727z"/>
</svg>
