<?xml version="1.0" encoding="utf-8"?>
<!-- Generator: Adobe Illustrator 16.0.0, SVG Export Plug-In . SVG Version: 6.00 Build 0)  -->
<!DOCTYPE svg PUBLIC "-//W3C//DTD SVG 1.1//EN" "http://www.w3.org/Graphics/SVG/1.1/DTD/svg11.dtd">
<svg version="1.1" id="Layer_1" xmlns="http://www.w3.org/2000/svg" xmlns:xlink="http://www.w3.org/1999/xlink" x="0px" y="0px"
	 width="93.281px" height="116.02px" viewBox="0 0 93.281 116.02" enable-background="new 0 0 93.281 116.02" xml:space="preserve">
<path fill="#81C0AB" d="M61.888,74.114c2.057-0.525,3.827-1.273,5.258-2.07C65.715,72.84,63.945,73.588,61.888,74.114"/>
<path fill="#81C0AB" d="M49.702,49.286c-1.079,0.003-1.88,0.282-2.656,0.587C47.822,49.568,48.623,49.289,49.702,49.286"/>
<path fill="#81C0AB" d="M50.306,52.387c-0.002-1.021-0.043-2.052-0.124-3.085C50.263,50.335,50.304,51.366,50.306,52.387"/>
<path fill="#81C0AB" d="M74.2,54.984c-0.04,0.049-0.068,0.109-0.073,0.193C74.132,55.093,74.16,55.033,74.2,54.984"/>
<path fill="#81C0AB" d="M74.859,54.679c0.071-0.052,0.122-0.128,0.129-0.245C74.981,54.551,74.93,54.627,74.859,54.679"/>
<path fill="#81C0AB" d="M62.442,53.294c-0.044,0.315-0.063,0.638-0.058,0.967C62.379,53.932,62.398,53.611,62.442,53.294"/>
<path fill="#81C0AB" d="M62.442,53.294c1.337-0.186,3.414,0.373,4.277-0.286C65.856,53.667,63.779,53.109,62.442,53.294"/>
<path fill="#F8B018" d="M68.96,89.402c0.003-0.858,0.012-1.724,0.024-2.589c0.028-2.168,0.069-4.348,0.063-6.48
	c-0.007-2.559-0.083-5.049-0.332-7.365c0.036,1.248,0.044,2.521,0.04,3.809c-0.011,3.006-0.096,6.084-0.087,9.068
	c0.007,2.561,0.083,5.051,0.332,7.367C68.965,91.963,68.955,90.69,68.96,89.402"/>
<path fill="#E3BE98" d="M-0.27,97.147c0.09,0.066,0.18,0.13,0.27,0.195v-4.416C-0.354,93.782-0.443,95.733-0.27,97.147"/>
<path fill="#F8B018" d="M44.721,112.217c0.076-0.859,0.115-1.805,0.115-2.754c0-0.947-0.039-1.894-0.115-2.754
	c-0.058-0.67-0.138-1.287-0.242-1.809c0,3.042,0,6.084,0,9.125C44.583,113.506,44.663,112.887,44.721,112.217"/>
<path fill="#48132D" d="M61.587,23.356c3.361-5.452,14.11-7.198,17.963-0.286c-0.96,0.847-3.888-0.275-4.847,0.571
	c-3.042,0-6.083,0-9.125,0C64.337,23.458,62.355,24.013,61.587,23.356 M54.174,45.595c2.272,4.286,8.114,5.002,12.26,7.413
	c0.095,0,0.19,0,0.285,0c2.604,0.628,4.119,2.345,7.413,2.282c-0.005-0.042-0.007-0.078-0.005-0.113
	c0.005-0.084,0.033-0.145,0.073-0.193c0.146-0.176,0.475-0.167,0.659-0.305c0.071-0.052,0.122-0.128,0.129-0.245
	c0.887-0.955,1.405-4.018,0-4.847c-4.798-1.238-9.713-1.58-13.116-3.992c-2.437-1.727-3.214-4.829-5.418-6.842
	c-1.4,0.024-1.6,1.251-2.28,1.995c-0.32-4.099-4.104-9.887-0.856-13.116c1.807-0.19,2.604,0.628,3.707,1.141
	c2.131-4.639,11.072-3.265,17.107-3.136c-0.12,2.977-0.942,7.528,1.426,8.268c2.81,0.879,4.049-3.102,4.847-5.702
	c0.315-1.205,0.329-2.713,0.285-4.277c-0.231-0.054-0.284-0.286-0.57-0.285c-0.054-0.231-0.286-0.284-0.285-0.571
	c1.815-1.19-0.44-2.075-0.571-3.706c0.725,0.176,1.99-0.358,2.282-1.426c-1.101-3.587,0.58-5.753,0.284-9.979
	c-1.491-3.755-5.105-4.423-9.979-5.703c-2.006-0.526-3.965-1.5-5.417-1.71c-10.738-1.553-20.242,0.25-25.091,4.847
	c-4.19,3.972-6.331,11.068-6.558,16.252c-0.518,11.798,7.19,19.549,11.405,28.227c0.285,0,0.57,0,0.856,0
	c0.776-0.305,1.577-0.584,2.656-0.587c0.154,0,0.314,0.005,0.48,0.017C52.174,48.728,53.639,47.627,54.174,45.595z"/>
<path fill="#9C6F42" d="M54.744,31.625c0.169,1.028,0.481,1.912,0,2.851c-1.718-0.468-1.627-2.744-1.711-4.847
	c0.919-0.565,2.938-0.205,3.136,0.856C56.509,31.678,54.968,30.993,54.744,31.625 M75.558,33.905
	c-2.368-0.74-1.546-5.291-1.426-8.268c-6.035-0.129-14.976-1.503-17.107,3.136c-1.103-0.513-1.9-1.331-3.707-1.141
	c-3.248,3.229,0.536,9.017,0.856,13.116c0.68-0.744,0.88-1.971,2.28-1.995c2.204,2.013,2.981,5.115,5.418,6.842
	c3.403,2.412,8.318,2.754,13.116,3.992c0-1.045,0-2.091,0-3.136c-2.605,0.418-3.73-0.644-4.563-1.996
	c1.145-1.406,1.763,0.553,3.422,0.285c0.76,0,1.521,0,2.281,0c0.511-1.579,1.46-2.723,1.14-5.133
	c2.713,0.052,5.295-0.028,7.414-0.57c0.653-4.565-2.469-7.784-4.277-10.834C79.607,30.803,78.368,34.784,75.558,33.905z"/>
<path fill="#9C6F42" d="M62.442,53.294c0.769-0.658,2.75-0.103,3.992-0.286c-4.146-2.411-9.988-3.127-12.26-7.413
	c-0.535,2.032-2,3.133-3.992,3.707c0.081,1.033,0.122,2.063,0.124,3.085c0.018,7.158-1.838,13.943-4.686,18.584
	c0.266-0.078,0.538-0.096,0.818-0.061c0.327,0.039,0.664,0.15,1.007,0.309c0.022,0.012,0.043,0.02,0.065,0.031
	c0.005,0.002,0.01,0.004,0.015,0.006c1.677,0.811,3.501,2.744,5.223,3.422c3.442,0.412,6.523,0.104,9.14-0.564
	c2.057-0.525,3.827-1.273,5.258-2.07c0.464-0.258,0.893-0.523,1.284-0.787c-0.704-5.889-5.978-12.072-6.046-16.995
	C62.379,53.932,62.398,53.61,62.442,53.294"/>
<path fill="#9C6F42" d="M65.578,23.641c3.042,0,6.083,0,9.125,0c0.959-0.846,3.887,0.276,4.847-0.571
	c-3.853-6.912-14.602-5.166-17.963,0.286C62.355,24.013,64.337,23.458,65.578,23.641"/>
<path fill="#48132D" d="M70.425,44.456c0.833,1.353,1.958,2.414,4.563,1.996c0.787,0.122,1.14-1.711,1.14-1.711
	c-0.17-0.404-2.994,0.127-2.281,0C72.192,45.035,71.57,43.049,70.425,44.456"/>
<path fill="#DF5D1F" d="M94.328,70.979c-0.026-1.033-0.618-2.138-0.464-5.783c0.034-0.8-0.583-2.583-0.583-3.234
	c0-2.244-0.816-4.144-2.326-5.531c-3.288-3.021-9.747-1.394-15.967-1.996c-0.007,0.117-0.058,0.193-0.129,0.245
	c-0.184,0.138-0.513,0.129-0.659,0.305c-0.04,0.049-0.068,0.109-0.073,0.193c-0.002,0.035,0,0.071,0.005,0.113
	c-3.294,0.062-4.738-2.15-7.413-2.282c-3.792-0.188-3.527-0.234-4.277,0.286c-0.262,0.182-0.063,0.638-0.058,0.967
	c0.068,4.923,5.342,11.106,6.046,16.995c-0.006,0.672,0.491,0.84,0.285,1.711c0.249,2.316,0.325,4.807,0.332,7.365
	c0.006,2.133-0.035,4.312-0.063,6.48c-0.012,0.865-0.021,1.73-0.024,2.589c-0.005,1.288,0.005,2.562,0.04,3.81
	c0.317,7.549-1.441,13.021-3.689,18.004c9.602-5.215,18.845-10.787,29.246-15.203c-0.049-3.062-0.197-6.18-0.466-9.357
	C94.465,82.016,94.543,76.145,94.328,70.979"/>
<path fill="#DF5D1F" d="M44.479,104.901c-0.641-11.852-5.39-24.965,1.141-33.93c2.848-4.641,4.704-11.426,4.686-18.584
	c-0.002-1.021-0.043-2.052-0.124-3.085c-0.166-0.012-0.326-0.017-0.48-0.017c-1.079,0.003-1.88,0.282-2.656,0.587
	c-0.226,3.479-2.271,5.142-4.277,6.843c-1.744,0.535-4.363-1.942-6.387-1.997c-0.058-0.002-0.115-0.002-0.171,0.001
	c-2.108,0.093-3.282,2.688-5.132,3.422c-1.399,0.554-3.567,0.434-5.418,0.855c-1.54,0.352-3.044,1.223-4.562,1.426
	c-5.443,0.729-14.072-0.861-16.822,1.711c-2.088,1.953-2.98,10.449-3.422,14.256C0.176,82.241,0.383,87.393,0,92.926v4.416
	c6.728,4.894,13.724,9.398,21.169,12.5c7.087,2.955,14.644,4.779,22.2,6.055c0.256,0.041,0.514,0.082,0.771,0.123
	c0.199-0.58,0.351-1.205,0.339-1.994C44.479,110.985,44.479,107.943,44.479,104.901"/>
<path fill="#FBB117" d="M54.925,116.543"/>
<path fill="#FBB117" d="M44.14,116.02c-0.23-0.037,0.351-1.205,0.339-1.994c0.104-0.52,0.184-1.139,0.242-1.809
	c0.076-0.859,0.115-1.805,0.115-2.754c0-0.947-0.039-1.894-0.115-2.754c-0.058-0.67-0.138-1.287-0.242-1.809
	c-0.641-11.852-5.39-24.965,1.141-33.93c0.266-0.078,0.538-0.096,0.818-0.061c0.327,0.039,0.664,0.15,1.007,0.309
	c0.022,0.012,0.043,0.02,0.065,0.031c0.005,0.002,0.01,0.004,0.015,0.006c1.677,0.811,3.501,2.744,5.223,3.422
	c3.442,0.412,6.523,0.104,9.14-0.564c2.057-0.525,3.827-1.273,5.258-2.07c0.464-0.258,0.893-0.523,1.284-0.787
	c-0.006,0.672,0.491,0.84,0.285,1.711c0.036,1.248,0.044,2.521,0.04,3.809c-0.011,3.006-0.096,6.084-0.087,9.068
	c0.007,2.561,0.083,5.051,0.332,7.367c0.317,7.549-1.441,13.021-3.689,18.004c-3.395,1.844-4.572,4.805-10.386,5.328
	C54.925,116.543,43.595,115.932,44.14,116.02z"/>
<path fill="#48132D" d="M53.033,29.628c0.084,2.103-0.007,4.379,1.711,4.847c0.481-0.939,0.169-1.823,0-2.851
	c0.224-0.631,1.765,0.054,1.425-1.14C55.971,29.423,53.952,29.063,53.033,29.628"/>
</svg>
