<?xml version="1.0" encoding="utf-8"?>
<!-- Generator: Adobe Illustrator 16.0.0, SVG Export Plug-In . SVG Version: 6.00 Build 0)  -->
<!DOCTYPE svg PUBLIC "-//W3C//DTD SVG 1.1//EN" "http://www.w3.org/Graphics/SVG/1.1/DTD/svg11.dtd">
<svg version="1.1" id="Layer_1" xmlns="http://www.w3.org/2000/svg" xmlns:xlink="http://www.w3.org/1999/xlink" x="0px" y="0px"
	 width="80px" height="100px" viewBox="6.641 8.01 80 100" enable-background="new 6.641 8.01 80 100" xml:space="preserve">
<g>
	<path fill="#81C0AB" d="M59.789,71.865c1.766-0.45,3.283-1.093,4.512-1.776C63.072,70.772,61.555,71.414,59.789,71.865"/>
	<path fill="#81C0AB" d="M49.333,50.562c-0.926,0.002-1.613,0.241-2.279,0.503C47.72,50.803,48.407,50.564,49.333,50.562"/>
	<path fill="#81C0AB" d="M49.852,53.222c-0.002-0.876-0.037-1.761-0.107-2.647C49.814,51.462,49.85,52.346,49.852,53.222"/>
	<path fill="#81C0AB" d="M70.354,55.45c-0.034,0.042-0.059,0.094-0.062,0.166C70.295,55.544,70.319,55.493,70.354,55.45"/>
	<path fill="#81C0AB" d="M70.919,55.189c0.061-0.044,0.104-0.109,0.11-0.21C71.022,55.079,70.979,55.144,70.919,55.189"/>
	<path fill="#81C0AB" d="M60.264,54.001c-0.037,0.27-0.054,0.547-0.05,0.83C60.21,54.548,60.227,54.272,60.264,54.001"/>
	<path fill="#81C0AB" d="M60.264,54.001c1.148-0.16,2.93,0.32,3.67-0.246C63.193,54.321,61.412,53.842,60.264,54.001"/>
	<path fill="#F8B018" d="M65.857,84.983c0.002-0.735,0.011-1.479,0.021-2.222c0.023-1.86,0.059-3.73,0.054-5.56
		c-0.006-2.196-0.071-4.332-0.285-6.319c0.031,1.07,0.038,2.163,0.034,3.268c-0.009,2.58-0.082,5.221-0.074,7.781
		c0.006,2.198,0.071,4.334,0.285,6.321C65.861,87.181,65.853,86.088,65.857,84.983"/>
	<path fill="#E3BE98" d="M7.454,91.628c0.077,0.058,0.155,0.111,0.232,0.168v-3.789C7.382,88.741,7.306,90.415,7.454,91.628"/>
	<path fill="#F8B018" d="M45.059,104.56c0.065-0.737,0.098-1.549,0.098-2.363c0-0.812-0.033-1.626-0.098-2.363
		c-0.05-0.574-0.119-1.104-0.208-1.553c0,2.61,0,5.221,0,7.83C44.94,105.665,45.009,105.134,45.059,104.56"/>
	<path fill="#48132D" d="M59.53,28.312c2.885-4.678,12.107-6.175,15.413-0.245c-0.823,0.727-3.336-0.236-4.158,0.49
		c-2.61,0-5.22,0-7.83,0C61.891,28.4,60.19,28.876,59.53,28.312 M53.17,47.394c1.949,3.678,6.962,4.292,10.52,6.361
		c0.082,0,0.163,0,0.244,0c2.235,0.539,3.535,2.012,6.361,1.958c-0.004-0.036-0.006-0.067-0.004-0.097
		c0.004-0.072,0.028-0.124,0.062-0.166c0.125-0.151,0.407-0.144,0.565-0.262c0.061-0.044,0.104-0.109,0.11-0.21
		c0.761-0.82,1.205-3.447,0-4.159c-4.117-1.062-8.334-1.356-11.254-3.426c-2.091-1.481-2.758-4.144-4.649-5.871
		c-1.2,0.02-1.373,1.074-1.956,1.712c-0.275-3.518-3.521-8.484-0.734-11.254c1.551-0.163,2.234,0.539,3.181,0.979
		c1.829-3.98,9.501-2.801,14.679-2.691c-0.104,2.555-0.809,6.46,1.224,7.095c2.411,0.754,3.475-2.663,4.158-4.893
		c0.271-1.034,0.283-2.328,0.245-3.67c-0.198-0.046-0.243-0.246-0.489-0.245c-0.046-0.198-0.245-0.244-0.244-0.49
		c1.558-1.021-0.378-1.78-0.49-3.179c0.622,0.151,1.708-0.308,1.958-1.224c-0.944-3.078,0.498-4.937,0.244-8.562
		c-1.279-3.222-4.381-3.795-8.562-4.894c-1.721-0.452-3.402-1.287-4.648-1.467c-9.214-1.332-17.369,0.215-21.529,4.159
		c-3.595,3.409-5.432,9.498-5.627,13.945c-0.444,10.123,6.169,16.774,9.786,24.221c0.245,0,0.489,0,0.734,0
		c0.666-0.262,1.354-0.501,2.279-0.504c0.132,0,0.269,0.004,0.411,0.015C51.454,50.082,52.711,49.138,53.17,47.394z"/>
	<path fill="#9C6F42" d="M53.659,35.407c0.145,0.882,0.412,1.641,0,2.446c-1.475-0.401-1.396-2.355-1.468-4.159
		c0.788-0.485,2.521-0.176,2.69,0.734C55.173,35.453,53.851,34.865,53.659,35.407 M71.519,37.365
		c-2.032-0.635-1.327-4.54-1.224-7.095c-5.178-0.11-12.85-1.29-14.679,2.691c-0.946-0.44-1.63-1.142-3.181-0.979
		c-2.787,2.771,0.459,7.737,0.734,11.254c0.583-0.638,0.756-1.692,1.956-1.712c1.892,1.727,2.559,4.389,4.649,5.871
		c2.92,2.07,7.137,2.363,11.254,3.426c0-0.897,0-1.794,0-2.691c-2.235,0.359-3.2-0.553-3.915-1.712
		c0.982-1.207,1.512,0.474,2.937,0.245c0.652,0,1.305,0,1.957,0c0.438-1.355,1.252-2.337,0.978-4.405
		c2.328,0.045,4.543-0.023,6.361-0.488c0.561-3.917-2.118-6.679-3.67-9.296C74.993,34.702,73.93,38.118,71.519,37.365z"/>
	<path fill="#9C6F42" d="M60.264,54.001c0.66-0.565,2.359-0.089,3.426-0.246c-3.558-2.069-8.57-2.683-10.52-6.361
		c-0.459,1.744-1.716,2.688-3.426,3.181c0.07,0.886,0.105,1.771,0.107,2.647c0.015,6.142-1.578,11.964-4.021,15.946
		c0.228-0.067,0.462-0.082,0.702-0.052c0.281,0.033,0.57,0.128,0.864,0.265c0.019,0.01,0.037,0.018,0.056,0.026
		c0.005,0.002,0.008,0.004,0.013,0.006c1.439,0.695,3.004,2.354,4.481,2.936c2.953,0.354,5.598,0.09,7.843-0.483
		c1.766-0.45,3.283-1.093,4.512-1.776c0.397-0.221,0.766-0.449,1.102-0.676c-0.604-5.053-5.129-10.358-5.188-14.582
		C60.21,54.548,60.227,54.271,60.264,54.001"/>
	<path fill="#9C6F42" d="M62.955,28.557c2.61,0,5.22,0,7.83,0c0.822-0.726,3.335,0.237,4.158-0.49
		c-3.306-5.93-12.528-4.433-15.413,0.245C60.19,28.876,61.891,28.4,62.955,28.557"/>
	<path fill="#48132D" d="M67.114,46.417c0.715,1.161,1.68,2.071,3.915,1.713c0.676,0.104,0.979-1.468,0.979-1.468
		c-0.146-0.347-2.569,0.109-1.957,0C68.63,46.914,68.097,45.21,67.114,46.417"/>
	<path fill="#DF5D1F" d="M86.444,69.175c-0.022-0.887-0.53-1.834-0.397-4.962c0.029-0.687-0.501-2.217-0.501-2.774
		c0-1.926-0.7-3.557-1.996-4.747c-2.821-2.592-7.184-1.196-12.521-1.713c-0.007,0.101-0.05,0.166-0.11,0.21
		c-0.158,0.118-0.44,0.111-0.565,0.262c-0.034,0.042-0.059,0.094-0.062,0.166c-0.002,0.03,0,0.062,0.004,0.097
		c-2.826,0.053-4.065-1.845-6.361-1.958c-3.253-0.162-3.026-0.201-3.67,0.246c-0.225,0.156-0.054,0.547-0.05,0.83
		c0.06,4.224,4.585,9.529,5.188,14.582c-0.005,0.577,0.421,0.721,0.244,1.469c0.214,1.987,0.279,4.124,0.285,6.319
		c0.005,1.83-0.03,3.699-0.054,5.56c-0.01,0.743-0.019,1.485-0.021,2.222c-0.005,1.105,0.004,2.199,0.034,3.27
		c0.271,6.478-1.237,11.173-3.166,15.448c8.239-4.475,14.991-9.256,23.915-13.045c-0.042-2.627-0.169-5.303-0.399-8.028
		C86.562,78.646,86.629,73.608,86.444,69.175"/>
	<path fill="#DF5D1F" d="M44.851,98.281c-0.55-10.169-4.625-21.421,0.979-29.113c2.443-3.981,4.036-9.804,4.021-15.946
		c-0.002-0.876-0.037-1.761-0.107-2.647c-0.143-0.01-0.279-0.015-0.411-0.015c-0.926,0.003-1.613,0.242-2.279,0.504
		c-0.194,2.985-1.949,4.412-3.67,5.871c-1.497,0.459-3.743-1.667-5.48-1.713c-0.049-0.001-0.099-0.001-0.146,0.001
		c-1.809,0.08-2.816,2.307-4.403,2.936c-1.201,0.476-3.061,0.373-4.649,0.734c-1.322,0.302-2.612,1.049-3.915,1.223
		c-4.67,0.626-11.075-0.738-13.435,1.469c-1.792,1.676-2.557,8.966-2.936,12.232c-0.583,5.021-0.405,9.441-0.733,14.189v3.789
		c5.773,4.199,10.776,8.064,17.164,10.726c6.081,2.535,12.565,4.101,19.049,5.195c0.219,0.035,0.44,0.07,0.662,0.105
		c0.17-0.498,0.301-1.034,0.291-1.711C44.851,103.502,44.851,100.892,44.851,98.281"/>
	<path fill="#FBB117" d="M53.814,108.272"/>
	<path fill="#FBB117" d="M44.561,107.823c-0.198-0.032,0.301-1.034,0.291-1.711c0.089-0.446,0.158-0.978,0.208-1.552
		c0.065-0.737,0.098-1.549,0.098-2.363c0-0.812-0.033-1.626-0.098-2.363c-0.05-0.574-0.119-1.104-0.208-1.553
		c-0.55-10.169-4.625-21.421,0.979-29.113c0.228-0.066,0.462-0.082,0.702-0.052c0.281,0.033,0.57,0.128,0.864,0.265
		c0.019,0.01,0.037,0.017,0.056,0.027c0.005,0.001,0.008,0.003,0.013,0.005c1.439,0.695,3.004,2.354,4.481,2.936
		c2.953,0.354,5.598,0.09,7.843-0.484c1.766-0.449,3.283-1.092,4.512-1.775c0.397-0.221,0.766-0.449,1.102-0.675
		c-0.005,0.576,0.421,0.721,0.244,1.468c0.031,1.071,0.038,2.163,0.034,3.268c-0.009,2.58-0.082,5.221-0.074,7.781
		c0.006,2.197,0.071,4.334,0.285,6.321c0.271,6.478-1.237,11.173-3.166,15.448c-2.913,1.582-3.922,4.123-8.911,4.572
		C53.814,108.272,44.093,107.747,44.561,107.823z"/>
	<path fill="#48132D" d="M52.191,33.694c0.071,1.804-0.007,3.757,1.468,4.159c0.412-0.805,0.145-1.564,0-2.446
		c0.191-0.542,1.514,0.046,1.223-0.979C54.712,33.518,52.979,33.209,52.191,33.694"/>
</g>
</svg>
